<?xml version="1.0" encoding="UTF-8"?>
<svg width="470px" height="715px" viewBox="0 0 470 715" version="1.1" xmlns="http://www.w3.org/2000/svg" xmlns:xlink="http://www.w3.org/1999/xlink">
    <defs>
        <polygon id="path-1" points="0.000584197736 0.117128815 222.356857 0.117128815 222.356857 216.458449 0.000584197736 216.458449 0.000584197736 0.117128815"></polygon>
        <polygon id="path-3" points="31.1714408 0.566029134 31.1714408 23.5733716 0.0469842333 23.5733716 0.0469842333 0.566029134 31.1714408 0.566029134"></polygon>
    </defs>
    <g id="Contact" stroke="none" stroke-width="1" fill="none" fill-rule="evenodd">
        <g id="404-v2" transform="translate(-811.000000, -233.000000)">
            <g id="Bg-Image" transform="translate(370.000000, 233.000000)">
                <g id="Page-1" transform="translate(735.402735, 356.152294) scale(-1, 1) rotate(20.000000) translate(-735.402735, -356.152294) translate(458.402735, 39.652294)">
                    <path d="M494.901729,479.368757 C495.514282,456.743374 488.487476,435.734369 479.47865,415.189975 C478.409608,412.753696 477.453713,409.559983 474.383143,410.988955 C470.341071,412.870824 474.312914,415.478893 475.085433,417.247538 C482.389254,434.032097 487.531581,451.538951 489.973991,469.537745 C492.958725,491.542345 488.631836,512.032079 471.827586,528.22709 C446.412476,552.714821 416.580739,570.494975 383.054174,580.372838 C353.518959,589.083318 324.658724,585.858371 301.494844,562.276436 C289.981183,550.555746 292.045136,536.46515 305.751505,527.266634 C316.562876,520.01636 328.942696,517.55275 341.314712,517.548846 C381.314054,517.533229 421.598214,514.323899 460.860151,525.388668 C464.082883,526.294464 466.377032,525.501893 467.227584,523.057805 C468.784328,518.591293 464.633011,520.145202 462.608073,519.454142 C445.507301,513.593797 427.965647,510.712428 409.854357,510.548447 C396.975131,510.431319 384.0842,509.865196 371.204973,509.338116 C350.019212,508.467459 328.739812,509.587991 308.482634,517.275546 C277.016121,529.214876 280.839702,556.361431 301.05006,571.62722 C325.587308,590.164807 353.542369,594.658649 383.050272,587.080415 C413.701348,579.205454 438.562429,560.238395 464.032162,542.669073 C486.041164,527.48137 496.048803,506.234203 494.901729,479.368757 M458.554297,531.971308 C422.659453,524.0534 388.656891,523.420904 354.630919,524.248614 C340.830912,524.584384 326.730481,525.002143 313.820042,531.096746 C299.157778,538.019059 297.261594,549.685089 309.664823,560.031467 C328.162373,575.461236 349.301315,580.50168 373.105059,575.187936 C404.715932,568.125068 430.751399,550.731439 458.554297,531.971308 M488.20656,319.936919 C497.761611,325.879254 500.699526,335.069961 499.107668,345.400723 C498.140068,351.698349 498.994521,357.472799 500.301562,363.372187 C503.617933,378.376389 501.932436,391.978948 489.057112,402.102782 C484.480519,405.702541 484.355667,408.880636 486.837093,413.917175 C496.271195,433.095066 501.589094,453.600418 503.184854,474.81635 C504.292912,489.531634 501.838797,504.153214 494.890024,517.384866 C492.065256,522.764983 492.513941,524.713225 497.742103,528.33641 C514.846777,540.189846 530.343986,554.061802 533.687669,576.121062 C536.551453,594.970993 536.231521,613.656943 520.769426,628.122352 C518.428458,630.308756 515.404708,635.017334 511.760601,631.077902 C507.823873,626.822222 512.767217,625.252696 515.615395,623.093621 C523.574686,617.04587 525.197758,608.085516 526.723289,598.867478 C530.601492,575.430002 521.420996,557.310174 504.409961,542.278643 C502.900036,540.943375 500.703428,537.605204 498.179084,541.22058 C496.247785,543.980915 499.326158,544.94918 500.652707,546.272736 C514.846777,560.441418 522.505644,577.218169 521.530241,597.567348 C521.01913,608.14408 516.586897,616.538312 507.788758,622.49236 C505.112251,624.303952 502.209451,624.944256 500.005039,621.895003 C498.807244,620.235678 499.298847,618.560736 501.292572,617.369926 C519.329731,606.547224 516.052376,590.953474 510.74228,574.899018 C508.288165,567.488668 504.289011,561.144191 498.756523,555.572764 C482.026404,538.721832 482.303419,538.936568 463.286954,552.300966 C439.729012,568.851267 416.311527,586.069203 387.782929,593.225773 C351.646185,602.287639 317.850408,598.695689 290.035805,571.010342 C270.043938,551.106252 274.234271,526.177336 299.391875,513.195559 C315.353376,504.953594 333.000374,502.052704 350.413275,502.091747 C390.311175,502.197163 430.669465,500.00295 469.170587,513.921757 C474.480683,515.838765 474.839632,512.637245 476.197393,510.228295 C484.562453,495.407596 485.436414,479.606919 481.417752,463.427525 C477.738531,448.618539 474.578224,433.614338 467.7504,419.781425 C467.12224,417.59502 466.497982,415.408615 465.869822,413.222211 C466.841324,410.910869 468.733607,408.892349 468.105447,406.081258 C468.323937,405.573699 468.417576,405.042715 468.37856,404.49221 C488.807408,398.811462 497.687481,384.962932 493.641507,367.069554 C491.870175,359.241445 489.642354,361.716767 486.134803,365.21111 C486.037263,362.55619 485.931919,359.90127 485.834379,357.250255 C489.962286,349.718872 496.119032,342.574014 490.395365,333.176379 C488.144134,329.010497 488.311903,324.450282 488.20656,319.936919" id="Fill-1" fill="#161717"></path>
                    <g id="Group-5" transform="translate(0.000000, 0.104587)">
                        <mask id="mask-2" fill="white">
                            <use xlink:href="#path-1"></use>
                        </mask>
                        <g id="Clip-4"></g>
                        <path d="M76.5067397,114.790533 C82.4059793,115.38789 86.1164138,115.473785 89.7097998,116.172653 C115.764775,121.217001 136.654014,112.397201 152.951054,92.172959 C156.872175,87.3082089 161.636045,81.7406859 158.608393,74.5411681 C155.081335,66.154745 147.129846,65.8775401 139.904058,66.3968112 C108.948656,68.626163 92.2263406,89.6664024 76.5067397,114.790533 M190.804508,210.324699 C188.490851,210.875204 185.97431,210.949386 184.351239,213.104556 C164.644189,215.134789 145.030778,217.965402 125.074025,215.497888 C89.7097998,211.11727 57.1859495,192.24001 47.8298802,155.824661 C46.035138,148.843784 46.5930688,141.816055 46.9988366,134.901551 C47.3460802,128.939694 45.2236024,126.011474 40.4714371,122.599121 C14.1979716,103.753094 -2.26293585,79.4176311 0.253604879,45.4424662 C1.31484376,31.1254208 5.98117354,17.6985543 10.9674356,4.36929522 C11.9662487,1.69485395 13.3474199,-0.803894098 16.4140881,0.449384219 C19.4768547,1.70656683 18.5287626,5.2672828 17.7718496,7.28189841 C14.1901684,16.8552269 10.6670114,26.4558854 9.23511922,36.5875279 C3.86259739,74.7012442 20.140129,106.599325 55.2507492,122.388289 C87.5405027,136.908358 120.325761,134.905455 151.043165,117.258047 C165.030449,109.219106 172.338171,95.2963941 173.851997,78.9022643 C174.764975,68.9775494 170.660477,62.0552365 161.499489,57.7722261 C136.201427,45.9500244 113.677412,53.040222 93.0807939,68.5910243 C81.6139518,77.2429394 72.1213261,88.2764738 65.5315008,101.336337 C64.1191167,104.131811 59.6751789,107.501217 65.1413395,110.484097 C69.8388822,113.053122 71.3566098,109.05903 73.1981714,105.87703 C82.9756149,88.9636295 95.9640863,75.1502379 113.376988,66.0688505 C125.542218,59.7282773 138.280987,55.378894 152.295582,60.0796638 C164.632484,64.2182152 169.474387,73.8305866 164.456912,85.9221846 C156.126967,106.005872 140.547824,118.429335 119.697601,122.450758 C90.4394016,128.096366 62.8276826,123.325319 39.7925564,102.819968 C15.5908477,81.2721707 10.2378339,53.9147838 18.5833852,23.7658269 C20.413242,17.1597618 19.5821983,3.53377634 29.0202014,5.82950111 C35.6997638,7.45368734 27.6234238,18.3232413 25.8833041,24.6403888 C17.3972947,55.4140327 24.7752459,80.7724211 48.4658432,100.703841 C54.0334457,105.385089 55.2507492,104.038108 58.4149577,98.4549678 C73.4556779,71.9018655 94.2083602,52.3140234 125.198877,45.6259681 C141.581752,42.0886778 156.571751,45.930503 170.336643,54.1568501 C182.033681,61.145536 184.995005,75.3727827 178.885079,91.6614965 C169.591435,116.442049 151.136803,130.450656 125.499301,135.506716 C108.390725,138.876122 91.1807081,139.633555 74.0526248,136.232915 C67.8256496,134.995254 69.093674,138.942495 69.1287885,141.847289 C69.3277708,157.82366 77.361193,169.739564 89.8229466,178.63745 C108.215153,191.76759 129.3658,194.289764 151.363097,193.973516 C175.775493,193.618225 198.880848,186.652965 222.356857,181.436829 C221.463387,183.670085 220.569918,185.899437 219.676448,188.132693 C215.841162,189.706123 212.005876,191.283458 208.174491,192.856888 C205.657951,193.294169 203.110197,193.606513 200.628771,194.192157 C175.221464,200.212578 149.736124,205.31549 123.513379,199.810435 C94.0640005,193.629938 69.5267531,181.475872 62.3868003,148.605622 C61.9264099,146.489495 62.16831,143.686212 58.7231852,145.611029 C56.6319204,146.782317 52.7264052,146.001458 54.3728861,151.151222 C56.5968058,158.112577 58.2315819,165.214488 62.1800148,171.492592 C78.5862997,197.588892 104.270622,206.174434 132.959186,208.618522 C152.490663,210.285656 171.752929,207.099752 190.968376,204.038786 C190.913753,206.135391 190.859131,208.231997 190.804508,210.324699" id="Fill-3" fill="#161717" mask="url(#mask-2)"></path>
                    </g>
                    <path d="M248.60067,175.057164 C269.763022,173.190912 290.952685,170.633599 311.763891,177.563721 C312.450575,177.79017 313.293324,177.602764 313.933188,177.891682 C324.295874,182.57293 333.901646,185.708078 346.441432,182.787666 C365.699797,178.305537 380.369863,190.853937 394.298624,202.516063 C401.025006,208.149959 406.260971,215.232348 413.31899,220.717881 C421.527985,227.101401 419.908815,237.123723 419.003641,246.326144 C418.46912,246.470603 417.942402,246.646296 417.427389,246.853223 C417.126965,243.772736 416.432477,240.949931 412.944435,239.938719 C413.205843,235.187193 413.15122,229.303423 409.206689,227.238051 C404.942225,225.004795 407.41975,232.516656 404.079969,233.449783 C403.736627,230.693351 402.476406,228.854429 399.444852,228.76463 C399.117116,225.168775 402.866567,221.998489 398.824495,217.805277 C388.80125,207.404239 378.598531,197.405342 364.86095,192.177493 C356.889953,189.143856 348.614631,186.231253 340.02718,191.55671 C342.44618,195.991988 348.318108,198.756228 343.831253,204.358889 L335.052622,204.288612 C339.960852,197.366299 332.317591,195.874859 329.524036,193.910999 C315.595276,184.111222 299.473809,180.683252 282.692969,179.980479 C261.214586,179.078587 240.633575,185.106817 219.674107,188.23806 C220.567577,186.004804 221.464948,183.771548 222.358417,181.542196 C231.105835,179.379218 239.853252,177.216239 248.60067,175.057164" id="Fill-6" fill="#161717"></path>
                    <path d="M457.577333,311.630924 C467.495235,309.885705 476.847402,311.287346 485.493378,316.647941 C486.398552,317.741144 487.299825,318.83825 488.208901,319.935357 C488.310343,324.452625 488.142573,329.01284 490.393804,333.174817 C488.337654,336.969791 486.2737,340.76086 484.221452,344.559738 C476.683534,353.648934 466.367668,359.224266 457.046714,366.060684 C456.281997,365.963077 455.521183,365.861565 454.752565,365.767862 C454.64332,363.526797 455.22466,361.043667 452.622284,359.673259 C454.221945,358.377034 455.813804,357.084713 457.405662,355.788487 C466.281833,352.501072 473.000411,346.367426 478.19736,338.785287 C485.817212,327.669763 482.180908,320.302361 468.888111,318.451725 C465.384462,317.963689 462.47776,319.416086 459.317453,320.126667 C457.827036,319.904123 456.33662,319.681578 454.842302,319.455129 L454.842302,313.434708 C455.751378,312.837351 456.668257,312.232185 457.577333,311.630924" id="Fill-8" fill="#161717"></path>
                    <path d="M439.082514,409.190637 C438.610419,409.159403 438.173438,409.268723 437.767671,409.510789 C431.251976,405.946169 426.57004,400.374742 421.771055,394.928252 C421.75935,394.276235 421.739842,393.624218 421.712531,392.972201 C423.238062,390.067406 424.283694,387.041578 423.975467,383.691694 C431.306599,382.340809 438.633829,380.986019 445.961059,379.639037 C449.413987,380.595589 447.240788,385.507191 450.728831,386.440317 C447.689474,392.335801 444.654018,398.231284 441.61076,404.126768 C439.347824,405.102841 439.371234,407.226777 439.082514,409.190637" id="Fill-10" fill="#1B1B1B"></path>
                    <g id="Group-14" transform="translate(521.156577, 209.911797)">
                        <mask id="mask-4" fill="white">
                            <use xlink:href="#path-3"></use>
                        </mask>
                        <g id="Clip-13"></g>
                        <path d="M31.171831,5.10893807 C29.6111856,6.42468509 28.0778515,7.95516826 26.3182238,9.14597788 C20.0600357,13.386041 13.6769959,17.4347937 7.45392235,21.7217083 C5.18708489,23.2834258 2.68615061,24.7319188 0.848490643,22.1902235 C-0.692646701,20.0623834 0.0408566423,17.3762293 2.60031512,15.6544357 C9.74026787,10.84825 16.6890416,5.73752937 24.024075,1.25540006 C26.911269,-0.505436452 29.5526614,1.22416571 31.171831,5.10893807" id="Fill-12" fill="#161717" mask="url(#mask-4)"></path>
                    </g>
                    <path d="M479.725622,189.423404 C478.270321,192.027568 481.879313,199.23099 476.795511,199.352023 C469.600935,199.523812 473.65081,192.152505 472.698817,188.111561 C472.293049,186.385863 472.68321,184.484472 472.597375,182.668975 C472.46472,179.924257 472.917307,177.163921 476.101023,177.023367 C479.877785,176.851578 480.900008,179.57287 480.478634,182.961798 C480.256242,184.761677 480.05726,186.565461 479.725622,189.423404" id="Fill-15" fill="#1B1B1B"></path>
                    <path d="M551.768526,300.396709 C550.800926,301.821776 550.098636,303.8442 549.291002,303.887148 C542.455375,304.242438 535.900664,302.750998 529.736115,299.811065 C528.08183,299.018493 528.667072,297.57 529.486411,296.21521 C531.8781,292.248448 534.776999,294.391905 537.933405,294.997071 C542.775307,295.922388 547.769372,296.012187 551.768526,300.396709" id="Fill-17" fill="#1B1B1B"></path>
                    <path d="M190.804508,210.430066 C190.859131,208.333461 190.913753,206.236855 190.968376,204.144153 C197.647938,202.028026 204.323599,199.915803 211.003161,197.80358 C230.043035,194.371706 248.981467,190.14726 268.146193,187.710981 C289.835263,184.954549 311.481414,184.845229 328.746054,202.000696 C324.411362,202.106112 320.080571,202.211528 315.74978,202.316944 C304.716017,193.270695 291.368597,194.254577 278.571304,194.586442 C249.972477,195.328258 222.637773,203.527275 195.053365,210.117723 C193.691702,210.441779 192.224695,210.336363 190.804508,210.430066" id="Fill-19" fill="#161717"></path>
                    <path d="M424.158062,323.19349 C424.848648,322.943615 425.55484,322.752305 426.28054,322.623463 C426.456113,324.880145 425.960608,327.374989 428.496657,328.780535 C427.716334,329.561393 426.936011,330.346156 426.155688,331.127015 C419.441012,333.981054 413.44033,337.959529 408.418953,343.218613 C400.167041,351.86272 402.207585,361.06514 413.299872,365.402811 C417.404369,367.007475 421.742964,367.436948 426.116672,366.367171 C426.936011,366.659993 427.751448,366.952815 428.566886,367.245637 C428.535673,369.611639 428.508361,371.969833 428.477148,374.335835 C425.469004,374.628657 422.46086,374.921479 419.452716,375.214301 C417.189781,372.340741 413.787574,373.402709 410.888675,372.727266 C410.123958,372.313411 409.359242,371.90346 408.598428,371.489605 C408.75059,372.375879 408.906655,373.254345 409.06272,374.14062 C411.70021,377.806752 415.246777,380.184467 419.538552,381.488501 C421.107,382.042911 423.116331,381.703237 423.974686,383.690523 C424.282914,387.044311 423.241183,390.066235 421.711751,392.971029 C418.961113,388.812956 413.998261,387.790031 410.326842,384.955514 C394.568225,372.801447 386.776703,346.720765 410.439989,331.884448 C415.024385,329.006984 419.585371,326.090476 424.158062,323.19349" id="Fill-21" fill="#161717"></path>
                    <path d="M384.528593,306.836451 C380.60357,292.656056 376.233763,287.135384 367.778966,285.577571 C373.428503,292.63263 375.874815,300.905829 384.528593,306.836451 M397.89162,266.98142 C396.096877,269.011653 394.302135,271.041885 392.507393,273.072118 C379.257513,279.631332 379.378463,279.561054 386.428679,291.207563 C389.561675,296.380752 394.013416,301.518803 390.962354,308.28104 C388.769647,313.149694 384.49738,313.532315 379.870067,312.411783 C373.065653,308.796407 369.429349,302.448025 365.613571,296.177729 C363.82273,293.233891 363.116538,289.001637 358.399488,288.872795 C355.613735,288.8767 353.44834,287.986521 352.749951,284.968501 C365.125869,279.00274 378.672271,275.098447 388.527747,264.689599 C390.018164,264.029774 391.504678,263.369948 392.991193,262.710122 C394.021219,264.830154 395.648192,266.259125 397.89162,266.98142" id="Fill-23" fill="#161717"></path>
                    <path d="M315.75134,202.318505 C320.082131,202.21309 324.412922,202.107674 328.743713,202.002258 C330.725733,203.103269 332.356607,205.16864 335.052622,204.290174 L343.831253,204.356547 C343.082143,205.808944 342.329132,207.257437 341.57612,208.70593 C334.120137,212.356445 326.480777,215.495497 317.222249,216.510613 C321.767628,219.579388 325.396129,217.541347 328.930991,217.435931 C330.745241,217.381271 332.875522,214.332018 334.174759,217.779509 C335.267211,220.684304 332.364411,221.160627 330.628193,221.914156 C328.661779,222.769196 326.184255,222.675493 324.463643,223.811643 C322.364575,225.205476 317.00766,221.086446 318.150833,226.435328 C319.083318,230.796425 322.977128,226.575883 325.54439,226.634447 C326.968479,226.665682 328.482305,226.470467 329.816657,225.990239 C331.650415,225.338222 333.729975,222.652068 334.986295,226.099559 C335.887568,228.590499 333.515387,230.152216 331.459236,230.866702 C326.878742,232.447941 321.588154,231.795924 317.569492,235.235607 C315.91911,236.117977 314.268727,237.004252 312.618345,237.890526 C312.07602,237.785111 311.533696,237.687503 310.995273,237.589896 C310.757275,227.220091 309.504857,216.795627 312.735393,206.624942 L315.75134,202.318505 Z" id="Fill-25" fill="#1B1B1B"></path>
                    <path d="M365.710331,415.150151 C365.995149,412.073568 367.298288,409.809077 370.540529,409.090687 C371.332556,410.67583 372.932218,412.342964 372.76835,413.818787 C372.245534,418.61326 375.526791,426.976257 369.744599,427.335452 C362.093535,427.803968 368.008381,419.136435 365.710331,415.150151" id="Fill-27" fill="#525252"></path>
                    <path d="M458.552736,531.970136 C430.749838,550.734172 404.714371,568.127801 373.1074,575.186765 C349.299754,580.504413 328.160812,575.463969 309.663262,560.030296 C297.260033,549.683917 299.156217,538.021792 313.818481,531.095574 C326.732822,525.000972 340.829351,524.583212 354.629358,524.247443 C388.65533,523.423637 422.661793,524.056133 458.552736,531.970136" id="Fill-29" fill="#FCFBFB"></path>
                    <path d="M494.901729,479.368757 C496.048803,506.234203 486.041164,527.48137 464.032162,542.669073 C438.562429,560.238395 413.701348,579.205454 383.050272,587.080415 C353.542369,594.658649 325.587308,590.164807 301.05006,571.62722 C280.839702,556.361431 277.016121,529.214876 308.482634,517.275546 C328.739812,509.587991 350.019212,508.467459 371.204973,509.338116 C384.0842,509.865196 396.975131,510.431319 409.854357,510.548447 C427.965647,510.712428 445.507301,513.593797 462.608073,519.454142 C464.633011,520.145202 468.784328,518.591293 467.227584,523.057805 C466.377032,525.501893 464.082883,526.294464 460.860151,525.388668 C421.598214,514.323899 381.314054,517.533229 341.314712,517.548846 C328.942696,517.55275 316.562876,520.01636 305.751505,527.266634 C292.045136,536.46515 289.981183,550.555746 301.494844,562.276436 C324.658724,585.858371 353.518959,589.083318 383.054174,580.372838 C416.580739,570.494975 446.412476,552.714821 471.827586,528.22709 C488.631836,512.032079 492.958725,491.542345 489.973991,469.537745 C487.531581,451.538951 482.389254,434.032097 475.085433,417.247538 C474.312914,415.478893 470.341071,412.870824 474.383143,410.988955 C477.453713,409.559983 478.409608,412.753696 479.47865,415.189975 C488.487476,435.734369 495.514282,456.743374 494.901729,479.368757" id="Fill-31" fill="#F4F4F4"></path>
                    <path d="M486.134413,365.210329 C484.542555,366.932122 482.946795,368.65782 481.351035,370.379614 C471.144414,375.732401 460.937793,381.085188 450.731172,386.437974 C447.239228,385.504848 449.416328,380.593247 445.959498,379.636695 C450.422944,377.364396 454.878587,375.092097 459.342033,372.823702 C468.686397,369.71198 476.950015,364.843325 483.824658,357.721893 C484.487932,357.542296 485.159009,357.386124 485.833989,357.249474 C485.931529,359.904394 486.036873,362.555409 486.134413,365.210329" id="Fill-33" fill="#161717"></path>
                    <path d="M441.612711,404.127158 C450.691765,401.378536 459.111447,407.594171 468.100765,406.079305 C468.732826,408.894301 466.840544,410.908917 465.869042,413.220259 C456.8212,412.646328 447.19592,415.953264 439.084465,409.191028 C439.373185,407.227168 439.349775,405.103232 441.612711,404.127158" id="Fill-35" fill="#161717"></path>
                    <path d="M76.5067397,114.89512 C92.2263406,89.7709891 108.948656,68.7307497 139.904058,66.5013979 C147.129846,65.9821268 155.081335,66.2593317 158.608393,74.6457548 C161.636045,81.8452726 156.872175,87.4127956 152.951054,92.2775457 C136.654014,112.501788 115.764775,121.321587 89.7097998,116.27724 C86.1164138,115.578371 82.4059793,115.492477 76.5067397,114.89512" id="Fill-37" fill="#FCFBFB"></path>
                    <path d="M425.149072,279.672327 C422.140928,269.731995 417.700892,264.180089 413.128201,258.717982 C412.461025,257.921506 412.894104,255.422758 410.557038,256.964954 C408.840328,258.093295 407.494271,259.67063 409.2578,261.32605 C414.458651,266.206417 415.902248,274.171177 425.149072,279.672327 M397.8924,266.983372 C395.645071,266.261078 394.018098,264.832106 392.991973,262.712074 C398.64151,255.71558 408.005382,251.998692 410.795036,242.483928 C411.512933,241.636696 412.226928,240.789465 412.944825,239.938329 C416.432867,240.953445 417.127355,243.772345 417.427779,246.852833 C414.805895,253.759529 422.14483,255.96155 424.130751,260.759928 C427.228632,268.248363 437.146534,274.581128 428.668328,283.662515 C423.74059,288.948929 416.089526,284.017806 407.525484,271.863739 C405.562972,269.079978 404.770945,261.13474 397.8924,266.983372" id="Fill-39" fill="#1B1B1B"></path>
                    <path d="M397.913859,228.990689 C398.460085,229.154669 398.971196,229.080487 399.447193,228.76424 C402.478747,228.854038 403.735066,230.696865 404.078408,233.449392 C403.754574,234.730001 403.43074,236.014513 403.106906,237.299026 C397.539304,244.15887 392.740319,251.803478 384.203589,255.586738 C381.886031,254.786358 379.560669,253.982073 377.239209,253.181693 C377.321143,252.494538 377.465502,251.81519 377.67619,251.155365 C386.837178,245.974367 394.293162,239.23946 397.913859,228.990689" id="Fill-41" fill="#1B1B1B"></path>
                    <path d="M454.841522,319.45669 C446.058989,322.564508 437.280359,325.672326 428.497827,328.780144 C425.961778,327.374598 426.457283,324.879755 426.281711,322.623073 C435.352962,318.160465 444.326673,313.393322 454.841522,313.436269 L454.841522,319.45669 Z" id="Fill-43" fill="#1B1B1B"></path>
                    <path d="M454.753735,365.766691 C446.888082,371.369352 437.656865,372.770994 428.48027,374.328807 C428.507581,371.970614 428.534892,369.608516 428.566105,367.246418 C437.06382,366.23911 444.749998,362.658873 452.623454,359.672088 C455.22583,361.042495 454.64449,363.525626 454.753735,365.766691" id="Fill-45" fill="#1B1B1B"></path>
                    <path d="M309.104551,380.838827 C311.558666,380.089202 313.521178,380.9052 314.145436,383.310245 C314.92966,386.312647 312.787675,387.42537 310.368674,388.760639 C302.9361,392.87186 294.984612,396.178797 288.609376,402.035238 L287.524727,402.105515 L286.46739,401.871257 C283.322689,397.861548 283.634818,395.034839 288.624982,392.551708 C294.083339,389.838224 299.135929,386.297029 304.364091,383.122839 C305.944244,382.361501 307.524398,381.59626 309.104551,380.838827" id="Fill-47" fill="#545353"></path>
                    <path d="M335.152504,284.281736 C335.183717,283.532112 335.043258,282.813722 334.723326,282.13047 C337.216457,282.017246 339.717391,281.904021 342.214424,281.790797 C345.725876,282.84886 349.237329,283.906924 352.752682,284.968892 C353.44717,287.986911 355.612565,288.87709 358.398317,288.873186 C349.245132,294.456326 342.089573,289.927345 335.152504,284.281736" id="Fill-49" fill="#161717"></path>
                    <path d="M273.16874,320.047801 C276.114458,319.794021 279.056275,319.540242 282.001993,319.282559 C284.510731,326.614823 284.510731,326.614823 273.141429,326.197063 C273.153134,324.151213 273.160937,322.097555 273.16874,320.047801" id="Fill-51" fill="#161717"></path>
                    <path d="M273.16874,320.047801 C273.160937,322.097555 273.153134,324.151213 273.141429,326.197063 C272.400122,326.427417 271.658816,326.649961 270.913607,326.87641 C267.917168,325.139 260.831838,329.074528 261.92429,322.585592 C262.907496,316.764289 269.15398,320.243015 273.16874,320.047801" id="Fill-53" fill="#545353"></path>
                    <path d="M321.885847,364.161636 C321.57762,363.993751 321.269392,363.825866 320.961165,363.661886 C321.257687,363.837579 321.55421,364.017177 321.846831,364.196774 L321.885847,364.161636 Z" id="Fill-55" fill="#E5E5E5"></path>
                    <path d="M409.062329,374.139839 C408.906265,373.253565 408.7502,372.375099 408.598037,371.488824 C409.358852,371.902679 410.123568,372.31263 410.888285,372.726485 C410.279633,373.198905 409.670981,373.66742 409.062329,374.139839" id="Fill-57" fill="#D9D9D8"></path>
                    <path d="M317.570663,235.234045 C321.89365,239.349171 326.427325,237.514153 330.715199,235.390217 C334.082291,233.719179 336.633946,232.93832 337.453285,237.791357 C332.48263,240.914792 326.645816,241.820589 321.218671,244.30372 C327.203746,247.930808 332.342171,245.373496 337.410367,242.226635 C339.595271,241.418446 341.784076,241.133433 343.992389,242.125124 C340.964737,251.429056 330.879066,248.348568 324.324356,252.783846 C334.374912,260.654902 341.659225,248.118215 351.343029,249.8322 C346.454308,258.519253 336.630045,257.414338 329.330126,262.950627 C339.123176,265.652398 345.486707,260.522156 352.494005,258.230336 C354.31996,257.632979 357.480267,254.470501 357.952363,257.12542 C359.860252,267.870037 363.847701,258.300613 366.383749,258.046834 C370.308773,257.6525 372.848723,253.213318 377.238038,253.182084 C379.559498,253.982464 381.88486,254.786748 384.20632,255.587129 C384.007338,256.118113 383.851273,256.660809 383.734225,257.215219 C370.090282,263.606548 357.593414,272.473199 342.423941,275.608347 C336.848535,276.760114 341.694339,279.668813 342.213254,281.792749 C339.716221,281.905973 337.219188,282.015294 334.722156,282.132422 C333.820883,281.277382 332.91961,280.426246 332.022239,279.571206 C330.988312,277.740092 329.958286,275.905074 328.932161,274.070056 C322.673973,262.3806 313.953867,251.803868 312.615613,237.888965 C314.269898,237.006594 315.92028,236.12032 317.570663,235.234045" id="Fill-59" fill="#1B1B1B"></path>
                    <path d="M425.149072,279.672327 C415.902248,274.171177 414.458651,266.206417 409.2578,261.32605 C407.494271,259.67063 408.840328,258.093295 410.557038,256.964954 C412.894104,255.422758 412.461025,257.921506 413.128201,258.717982 C417.700892,264.180089 422.140928,269.731995 425.149072,279.672327" id="Fill-61" fill="#F3F2F3"></path>
                    <path d="M426.170124,362.426958 C416.646286,352.748213 416.630679,342.639997 426.13501,337.416052 C436.009994,351.510552 436.017797,355.578826 426.170124,362.426958" id="Fill-63" fill="#161717"></path>
                    <path d="M459.36037,322.079985 C461.166817,329.595751 473.971913,337.134942 459.313551,344.619474 C458.552736,343.947935 457.78802,343.276397 457.019402,342.600954 C457.682677,335.678641 456.383439,328.971064 454.86181,322.283009 C456.36003,322.212731 457.858249,322.146358 459.36037,322.079985" id="Fill-65" fill="#161717"></path>
                    <path d="M454.860639,322.282228 C456.38617,328.970283 457.685408,335.681764 457.022133,342.600173 C452.788883,336.201035 444.330185,330.250892 454.860639,322.282228" id="Fill-67" fill="#1B1B1B"></path>
                    <path d="M304.865838,283.267791 C304.635643,283.423963 304.405448,283.580135 304.175253,283.732402 C303.991877,283.38492 303.808501,283.041342 303.621224,282.69386 C303.906042,282.654817 304.233777,282.510358 304.463972,282.604061 C304.655151,282.682147 304.737085,283.037438 304.865838,283.267791" id="Fill-69" fill="#F4F4F4"></path>
                </g>
            </g>
        </g>
    </g>
</svg>