<?xml version="1.0" encoding="UTF-8" standalone="no"?>
<svg width="16px" height="14px" viewBox="0 0 16 14" version="1.1" xmlns="http://www.w3.org/2000/svg" xmlns:xlink="http://www.w3.org/1999/xlink">
    <!-- Generator: Sketch 39.1 (31720) - http://www.bohemiancoding.com/sketch -->
    <title></title>
    <desc>Created with Sketch.</desc>
    <defs></defs>
    <g id="Opportunities-(GDS)" stroke="none" stroke-width="1" fill="none" fill-rule="evenodd">
        <g id="Opportunities-Detail---A-(Question-expanded)" transform="translate(-380.000000, -1061.000000)" fill="#FFFFFF">
            <g id="Second-actions" transform="translate(369.000000, 978.000000)">
                <g id="Save" transform="translate(1.000000, 73.000000)">
                    <path d="M26,14.625 L26,21.7142857 C26,22.1071448 25.8601204,22.443451 25.5803571,22.7232143 C25.3005938,23.0029776 24.9642877,23.1428571 24.5714286,23.1428571 L11.4285714,23.1428571 C11.0357123,23.1428571 10.6994062,23.0029776 10.4196429,22.7232143 C10.1398796,22.443451 10,22.1071448 10,21.7142857 L10,14.625 C10.2619061,14.9166681 10.5624983,15.1755941 10.9017857,15.4017857 C13.0565584,16.8660787 14.5357103,17.8928542 15.3392857,18.4821429 C15.6785731,18.7321441 15.953868,18.9270826 16.1651786,19.0669643 C16.3764892,19.2068459 16.6577363,19.3497017 17.0089286,19.4955357 C17.3601208,19.6413698 17.6874985,19.7142857 17.9910714,19.7142857 L18,19.7142857 L18.0089286,19.7142857 C18.3125015,19.7142857 18.6398792,19.6413698 18.9910714,19.4955357 C19.3422637,19.3497017 19.6235108,19.2068459 19.8348214,19.0669643 C20.046132,18.9270826 20.3214269,18.7321441 20.6607143,18.4821429 C21.6726241,17.7499963 23.1547521,16.7232209 25.1071429,15.4017857 C25.4464303,15.1696417 25.7440463,14.9107157 26,14.625 L26,14.625 Z M26,12 C26,12.4702404 25.8541681,12.9196407 25.5625,13.3482143 C25.2708319,13.7767879 24.9077403,14.1428556 24.4732143,14.4464286 C22.2351079,16.0000078 20.8422646,16.96726 20.2946429,17.3482143 C20.2351187,17.3898812 20.1086319,17.4806541 19.9151786,17.6205357 C19.7217252,17.7604174 19.5610125,17.8735115 19.4330357,17.9598214 C19.3050589,18.0461314 19.1502985,18.1428566 18.96875,18.25 C18.7872015,18.3571434 18.6160722,18.4374997 18.4553571,18.4910714 C18.2946421,18.5446431 18.145834,18.5714286 18.0089286,18.5714286 L18,18.5714286 L17.9910714,18.5714286 C17.854166,18.5714286 17.7053579,18.5446431 17.5446429,18.4910714 C17.3839278,18.4374997 17.2127985,18.3571434 17.03125,18.25 C16.8497015,18.1428566 16.6949411,18.0461314 16.5669643,17.9598214 C16.4389875,17.8735115 16.2782748,17.7604174 16.0848214,17.6205357 C15.8913681,17.4806541 15.7648812,17.3898812 15.7053571,17.3482143 C15.1636878,16.96726 14.3839337,16.4241107 13.3660714,15.71875 C12.3482092,15.0133893 11.7380962,14.5892864 11.5357143,14.4464286 C11.1666648,14.1964273 10.818454,13.8526808 10.4910714,13.4151786 C10.1636888,12.9776764 10,12.5714304 10,12.1964286 C10,11.7321405 10.1235107,11.3452396 10.3705357,11.0357143 C10.6175608,10.7261889 10.9702358,10.5714286 11.4285714,10.5714286 L24.5714286,10.5714286 C24.9583353,10.5714286 25.2931533,10.7113081 25.5758929,10.9910714 C25.8586324,11.2708347 26,11.6071409 26,12 L26,12 Z" id=""></path>
                </g>
            </g>
        </g>
    </g>
</svg>