<?xml version="1.0" encoding="UTF-8" standalone="no"?>
<svg width="10px" height="17px" viewBox="0 0 10 17" version="1.1" xmlns="http://www.w3.org/2000/svg" xmlns:xlink="http://www.w3.org/1999/xlink">
    <!-- Generator: Sketch 39.1 (31720) - http://www.bohemiancoding.com/sketch -->
    <title></title>
    <desc>Created with Sketch.</desc>
    <defs></defs>
    <g id="Opportunities-(GDS)" stroke="none" stroke-width="1" fill="none" fill-rule="evenodd">
        <g id="Opportunities-Detail---A-(Question-expanded)" transform="translate(-382.000000, -1018.000000)" fill="#FFFFFF">
            <g id="Second-actions" transform="translate(369.000000, 978.000000)">
                <g id="Save">
                    <path d="M18.4285714,50 C18.8214305,50 19.2023791,49.9553576 19.5714286,49.8660714 L19.5714286,55.7142857 C19.5714286,55.8690484 19.5148815,56.0029756 19.4017857,56.1160714 C19.2886899,56.2291672 19.1547627,56.2857143 19,56.2857143 L17.8571429,56.2857143 C17.7023802,56.2857143 17.5684529,56.2291672 17.4553571,56.1160714 C17.3422613,56.0029756 17.2857143,55.8690484 17.2857143,55.7142857 L17.2857143,49.8660714 C17.6488113,49.9553576 18.0297599,50 18.4285714,50 L18.4285714,50 Z M18.4285714,40.2857143 C19.6904825,40.2857143 20.7678527,40.7321384 21.6607143,41.625 C22.5535759,42.5178616 23,43.5952318 23,44.8571429 C23,46.1190539 22.5535759,47.1964241 21.6607143,48.0892857 C20.7678527,48.9821473 19.6904825,49.4285714 18.4285714,49.4285714 C17.1666604,49.4285714 16.0892902,48.9821473 15.1964286,48.0892857 C14.303567,47.1964241 13.8571429,46.1190539 13.8571429,44.8571429 C13.8571429,43.5952318 14.303567,42.5178616 15.1964286,41.625 C16.0892902,40.7321384 17.1666604,40.2857143 18.4285714,40.2857143 L18.4285714,40.2857143 Z M18.4285714,42.2857143 C18.5119052,42.2857143 18.5803569,42.2589288 18.6339286,42.2053571 C18.6875003,42.1517854 18.7142857,42.0833338 18.7142857,42 C18.7142857,41.9166663 18.6875003,41.8482146 18.6339286,41.7946429 C18.5803569,41.7410712 18.5119052,41.7142857 18.4285714,41.7142857 C17.5595195,41.7142857 16.8184554,42.0208303 16.2053571,42.6339286 C15.5922588,43.2470269 15.2857143,43.9880909 15.2857143,44.8571429 C15.2857143,44.9404766 15.3124997,45.0089283 15.3660714,45.0625 C15.4196431,45.1160717 15.4880948,45.1428571 15.5714286,45.1428571 C15.6547623,45.1428571 15.723214,45.1160717 15.7767857,45.0625 C15.8303574,45.0089283 15.8571429,44.9404766 15.8571429,44.8571429 C15.8571429,44.148806 16.1086284,43.5431573 16.6116071,43.0401786 C17.1145858,42.5371999 17.7202346,42.2857143 18.4285714,42.2857143 L18.4285714,42.2857143 Z" id=""></path>
                </g>
            </g>
        </g>
    </g>
</svg>