<?xml version="1.0" encoding="UTF-8"?>
<svg width="131px" height="177px" viewBox="0 0 131 177" version="1.1" xmlns="http://www.w3.org/2000/svg" xmlns:xlink="http://www.w3.org/1999/xlink">
    <!-- Generator: Sketch 44.1 (41455) - http://www.bohemiancoding.com/sketch -->
    <title>Robot</title>
    <desc>Created with Sketch.</desc>
    <defs></defs>
    <g id="Partnering-Opportunities-&amp;-EoI-(Search)" stroke="none" stroke-width="1" fill="none" fill-rule="evenodd">
        <g id="POD-Detail---EoI-(Login-UX)-Guest-Option" transform="translate(-1168.000000, -2440.000000)">
            <g id="Express-your-interest" transform="translate(370.000000, 2115.000000)">
                <g id="Express-Interest-Form" transform="translate(92.000000, 308.000000)">
                    <g id="Email" transform="translate(231.000000, 0.000000)">
                        <g id="Robot" transform="translate(475.000000, 17.000000)">
                            <ellipse id="Oval-8" fill="#4A4A4A" opacity="0.119999997" cx="65.5" cy="170.5" rx="63.5" ry="6.5"></ellipse>
                            <path d="M115.649063,47.1335635 C117.181904,47.004488 118.90854,46.9059304 120.416843,47.1335635 C120.469423,49.1222264 121.827496,49.8066267 123.957748,49.7185752 C124.661323,49.2417964 124.971797,48.3732885 125.048414,47.2696431 C126.629327,47.245629 128.507695,47.1030456 129.81469,47.6768812 C129.718544,50.6206027 128.749564,52.6913136 126.5462,53.5288034 C124.032362,52.1289848 121.090371,54.552402 118.781846,53.664883 C117.729239,53.259646 116.054683,51.7862844 115.649063,50.5350527 C115.334583,49.5634845 115.56844,48.4453306 115.649063,47.1335635" id="Fill-1" fill="#FFFFFF"></path>
                            <path d="M125.592745,54.2092013 C125.693899,55.0817115 125.433502,55.5925102 125.456036,56.3864745 C124.505084,56.2478935 123.440959,56.2223786 122.324255,56.250395 C122.338777,55.5860064 122.250642,54.8160562 122.459461,54.3457812 C122.545092,54.3257695 122.637232,54.3047572 122.733379,54.2832446 C122.771938,54.2747396 122.811498,54.2662346 122.85156,54.2577297 C122.891621,54.2492247 122.932183,54.2407197 122.973746,54.2322147 C123.014809,54.2242101 123.056873,54.2157051 123.099438,54.2072001 C123.163035,54.1951931 123.228135,54.1831861 123.294235,54.1711791 C123.319274,54.1666764 123.344813,54.1626741 123.370352,54.1581714 C123.411414,54.1511673 123.452978,54.1441633 123.495042,54.1376594 C123.582676,54.1241516 123.671812,54.1116442 123.76195,54.1001375 C123.766957,54.0996372 123.772466,54.0986366 123.777974,54.0981363 C124.124002,54.0556115 124.480547,54.0340989 124.817561,54.0561118 C124.818062,54.0561118 124.818563,54.0561118 124.818563,54.0561118 C124.864633,54.0591135 124.909702,54.0631159 124.954771,54.0676185 C125.00034,54.0721211 125.045409,54.0776243 125.089977,54.0841281 C125.178612,54.0971358 125.265245,54.1136454 125.348872,54.1341574 L125.349373,54.1341574 C125.433502,54.1551697 125.514625,54.179684 125.592745,54.2092013" id="Fill-2" fill="#FFFFFF"></path>
                            <path d="M125.705351,54.486564 L125.705351,54.4889292 C125.591087,54.3493856 125.472427,54.2334935 125.349373,54.1341574 C125.472427,54.2311284 125.591087,54.3493856 125.705351,54.486564" id="Fill-3" fill="#1C1C1C"></path>
                            <path d="M125.089977,54.0841281 C125.21185,54.1728211 125.33028,54.2898958 125.445955,54.4388999 C125.330968,54.2934435 125.21185,54.1763688 125.089977,54.0841281" id="Fill-4" fill="#1C1C1C"></path>
                            <path d="M124.818563,54.0561118 C124.937658,54.0773981 125.056754,54.1022321 125.174541,54.1377093 C125.056754,54.1057798 124.938967,54.0773981 124.818563,54.0561118" id="Fill-5" fill="#1C1C1C"></path>
                            <path d="M123.777974,54.4020472 C124.123502,54.1019325 124.480046,53.9553648 124.817561,54.1089119 C124.480547,53.9553648 124.124002,54.1054222 123.777974,54.4020472" id="Fill-6" fill="#1C1C1C"></path>
                            <path d="M123.495042,54.3662163 C123.612588,54.2668802 123.730803,54.1781873 123.85102,54.1001375 C123.730803,54.181735 123.61192,54.270428 123.495042,54.3662163" id="Fill-7" fill="#1C1C1C"></path>
                            <path d="M123.370352,54.2831159 C123.487581,54.2299001 123.607671,54.1837798 123.72633,54.1376594 C123.606241,54.1837798 123.487581,54.2334478 123.370352,54.2831159" id="Fill-8" fill="#1C1C1C"></path>
                            <path d="M123.099438,54.4266147 C123.216572,54.3379218 123.334622,54.2527766 123.455416,54.1711791 C123.334622,54.2563243 123.215657,54.3414695 123.099438,54.4266147" id="Fill-9" fill="#1C1C1C"></path>
                            <path d="M122.85156,54.4131484 C122.968274,54.3528372 123.086447,54.2925259 123.207538,54.2322147 C123.086447,54.2925259 122.968274,54.3528372 122.85156,54.4131484" id="Fill-10" fill="#1C1C1C"></path>
                            <path d="M122.733379,54.4386633 C122.849525,54.3783521 122.968687,54.3180409 123.089357,54.2577297 C122.968687,54.3180409 122.849525,54.3783521 122.733379,54.4386633" id="Fill-11" fill="#1C1C1C"></path>
                            <path d="M122.459461,54.6351782 C122.570745,54.5216512 122.690489,54.4024479 122.815439,54.2832446 C122.690489,54.4052861 122.570745,54.5244894 122.459461,54.6380164 L122.459461,54.6351782" id="Fill-12" fill="#1C1C1C"></path>
                            <path d="M103.527057,72.716024 C104.68182,74.646653 104.177049,78.2357519 105.570677,79.9282417 C106.398941,79.6425746 105.680845,78.7425483 105.570677,78.2952867 C105.424453,77.7029903 105.276227,77.0375512 105.162053,76.3901726 C104.957741,75.2420012 104.260176,73.3348859 104.480512,72.4443651 C104.842565,70.9775073 108.29784,70.4391925 109.112083,69.3145348 C109.942852,71.2541691 111.505738,72.8350936 112.516781,74.6211381 C112.826755,75.1689585 112.737619,76.1370246 113.605944,76.254093 C114.346575,75.0128672 112.810229,74.1388561 112.243865,73.2608426 C111.34349,71.8630252 110.682481,70.1140023 109.792622,68.7697162 C111.116644,67.598031 112.563352,66.5489175 113.469736,64.959488 C115.606999,66.5899415 118.150883,67.8126565 120.688758,69.0418754 C120.842492,67.4739585 118.853456,67.1762844 117.692683,66.5924429 C116.382183,65.9340579 115.23393,65.0175219 114.150275,64.41567 C115.711659,62.3914862 116.967076,60.062124 117.556976,57.0673727 C121.758891,57.0348537 125.070447,57.2534816 129.406567,57.7477706 C129.990959,67.3413809 127.839174,74.4185196 123.004794,80.2004008 C119.484419,84.4113634 110.399048,88.4602311 103.255141,88.9094939 C101.272114,89.034567 99.0747592,88.8919836 97.8063226,88.0935167 C95.0656384,86.3665067 93.8828326,78.8746255 95.8994113,75.0293768 C98.6496101,74.4660474 101.078318,73.5815301 103.527057,72.716024" id="Fill-13" fill="#FFFFFF"></path>
                            <path d="M97.397198,120.888195 C97.3511277,120.021688 96.3711816,120.43543 96.3075344,121.024274 C96.4843043,121.211384 96.8994381,121.157853 97.2619916,121.159854 C97.2915367,121.054792 97.2654969,120.891697 97.397198,120.888195 Z M38.2839488,110.817806 C38.5778976,113.928125 38.4211583,119.215717 40.0541514,121.024274 C40.592974,121.620623 42.2935703,122.377566 43.4598509,122.656729 C48.5496216,123.876943 55.5217661,123.576267 61.3025917,124.017525 C67.1334939,124.463786 73.5147362,125.456366 78.3295872,123.065468 C80.3401567,119.110655 79.807844,112.823479 79.41875,107.280237 C78.978578,101.018575 79.2009174,94.9245114 79.0101261,89.725471 C78.8974541,86.6846928 78.9630543,81.0729111 77.5108372,79.2478438 C76.016055,77.3682446 72.4481078,77.6078847 69.7479855,77.3422294 C63.1869687,76.6983528 56.6419763,76.6163049 49.4525,76.6628321 C48.8465749,76.6663341 48.2351414,76.6478233 47.6176988,76.618306 C47.4880008,76.6123025 47.357802,76.6057987 47.2276032,76.5982943 C47.1419725,76.5937917 47.055841,76.5892891 46.9702102,76.5842861 C46.8455199,76.5773321 46.7208295,76.5697776 46.5956384,76.5622733 C46.4333907,76.5527677 46.2701414,76.5422616 46.1068922,76.5322557 C45.7753861,76.5117437 45.4423777,76.4907314 45.1073662,76.47122 C45.0828287,76.4697191 45.058792,76.4687185 45.0342546,76.4672177 C44.8449656,76.4562112 44.6551758,76.4457051 44.4648853,76.4361995 C44.4368425,76.4346987 44.4087997,76.4336981 44.3807569,76.4321972 C43.1503784,76.3716618 41.8979664,76.3476477 40.6230199,76.4447045 C40.6230199,76.4447045 40.6230199,76.4447045 40.6225191,76.4447045 C40.4552638,76.4572118 40.2875076,76.4722206 40.1192508,76.4892305 C40.0070795,76.500237 39.8949083,76.5127443 39.7822362,76.5262522 C38.9574771,76.6248098 38.351552,76.8499415 37.9093769,77.1746314 C37.8883448,77.1901404 37.8678135,77.2061498 37.8472821,77.2216589 C37.7866896,77.2691867 37.7291017,77.3187156 37.6745183,77.3707461 C37.6559901,77.387756 37.6379625,77.4052662 37.6209365,77.4232768 C36.5037309,78.5509362 36.7866628,80.5441018 36.9213685,82.6498332 C37.5653517,92.6791984 37.3695528,101.136144 38.2839488,110.817806 Z M34.1977102,64.2790901 C36.6053861,65.024526 39.835818,65.2241428 42.9150191,65.2321475 C57.1812997,65.2666676 73.1306498,66.129172 85.9567317,66.5924429 C88.0484251,64.9980105 91.0841097,63.6952487 93.9919992,62.5100556 C96.5223624,61.4794529 98.4077909,58.9869953 100.939106,60.7410211 C101.38078,64.5487478 101.155937,68.5685986 101.34823,72.5799444 C99.2765673,73.3058689 97.5839832,73.6270568 95.4907875,74.2123991 C92.6073853,79.7101141 93.7676567,90.4058689 101.483937,89.8615506 C102.244599,97.5055208 101.889557,105.858906 101.483937,114.219295 C101.364255,116.703748 102.23258,120.8977 101.34823,123.336627 C100.772852,124.921053 96.1543505,127.305948 94.8102485,128.236542 C92.4431346,129.872949 90.3709709,131.56694 88.2712653,132.726668 C90.6659213,123.853929 89.2352871,110.990407 88.8165979,101.157156 C88.3659098,90.5574576 88.3619037,80.8002516 88.2712653,70.4031714 C87.3393425,70.8364748 87.7089067,73.0282066 87.7269343,74.6211381 C87.7449618,76.2926156 87.5311353,77.9705968 87.4545183,79.2478438 C87.2411927,82.8544529 87.7935359,86.7187127 87.8631422,90.6790287 C88.0554358,101.62593 89.2152064,113.874593 88.9528058,125.378821 C88.8872057,128.275015 87.8511239,131.299783 86.9106881,133.679175 C79.4507989,134.853362 71.913792,133.768727 64.5720833,133.271437 C60.7832989,133.014786 57.0220566,132.633063 53.2668234,132.454959 C47.7934671,132.194807 42.3336315,132.317379 37.3304931,131.229242 C35.6985015,130.875035 33.9107722,130.62689 33.3804625,129.868446 C32.7575115,128.978926 32.5697248,125.192712 32.4270069,122.929389 C31.9688073,115.694157 32.0729664,108.360369 31.4735512,101.292235 C31.0694343,96.5364541 30.8661239,91.6095728 30.6563035,87.0043798 C30.4249503,81.9179052 30.3463303,77.0410532 30.5200956,72.4443651 C30.6803402,68.19488 30.483039,64.9749971 34.1977102,64.2790901 Z M96.0356193,118.846501 C95.8608524,118.838996 95.846831,118.672899 95.6274962,118.710922 C95.5348547,119.223721 94.6249656,120.009681 95.3550803,120.479956 C95.8197898,120.173777 95.9880466,119.570424 96.0356193,118.846501 L96.0356193,118.846501 Z" id="Fill-14" fill="#FFFFFF"></path>
                            <path d="M98.0787385,41.5543008 C95.6795757,41.2956495 94.8548165,50.6991486 98.0787385,49.9907343 C98.1448895,49.0987127 97.2860283,49.1512434 96.9890749,48.3582797 C96.5694343,47.2346226 96.77625,44.2578818 97.2619916,43.0506758 C97.3651491,42.7935255 97.5469266,42.6004125 97.7186888,42.430313 C97.7307072,42.4178057 97.7432263,42.4057987 97.7552446,42.3937917 C97.7792813,42.3697776 97.803318,42.3462639 97.826854,42.3227501 C98.0677217,42.0826097 98.2454931,41.870986 98.0787385,41.5543008 Z M95.0826644,39.1048683 C97.1172706,39.1448917 99.455841,39.9933879 101.34823,41.1455617 C101.1319,43.7801024 102.48146,47.6618724 100.802948,49.8546548 C100.146896,50.7126565 96.0806881,52.642285 94.128708,51.7597689 C92.5287653,51.0368461 91.6819725,45.535629 92.3575038,42.6429374 C92.661518,41.3436776 93.7105696,39.0778525 95.0826644,39.1048683 L95.0826644,39.1048683 Z" id="Fill-15" fill="#FFFFFF"></path>
                            <path d="M98.0787385,49.9907343 C94.8548165,50.6991486 95.6795757,41.2956495 98.0787385,41.5543008 C98.2454931,41.870986 98.0677217,42.0826097 97.826854,42.3227501 C97.803318,42.3457636 97.7792813,42.3692774 97.7552446,42.3937917 C97.7432263,42.4052984 97.7307072,42.4173054 97.7186888,42.430313 C97.5469266,42.6004125 97.3651491,42.7935255 97.2619916,43.0506758 C96.77625,44.2578818 96.5694343,47.2346226 96.9890749,48.3582797 C97.2860283,49.1512434 98.1448895,49.0987127 98.0787385,49.9907343" id="Fill-16" fill="#1C1C1C"></path>
                            <path d="M96.3075344,121.024274 C96.3711816,120.43543 97.3511277,120.021688 97.397198,120.888195 C97.2654969,120.891697 97.2915367,121.054792 97.2619916,121.159854 C96.8994381,121.157853 96.4843043,121.211384 96.3075344,121.024274" id="Fill-17" fill="#1C1C1C"></path>
                            <path d="M96.0356193,118.846501 C95.9880466,119.570424 95.8197898,120.173777 95.3550803,120.479956 C94.6249656,120.009681 95.5348547,119.223721 95.6274962,118.710922 C95.846831,118.672899 95.8608524,118.838996 96.0356193,118.846501" id="Fill-18" fill="#1C1C1C"></path>
                            <path d="M93.7205849,52.5762463 C95.9534939,53.1285693 97.3751644,52.4096489 99.440818,51.8958484 C99.1869304,54.5253862 99.6596521,57.0418578 98.8960363,58.835907 C95.1973394,61.4459333 90.2422745,62.8007256 86.3648547,65.2321475 C87.2987806,56.1893593 86.5987118,46.3160854 85.8200229,37.7440726 C85.6007381,35.3281597 85.8505696,33.1298742 85.2751911,31.4844119 C85.0253096,30.7684933 84.2731613,30.1816501 84.1855275,29.442718 C89.4991399,29.0965155 94.8292775,29.9810328 99.0316934,31.4844119 C99.2375076,34.0003833 99.2680543,36.6919573 99.577026,39.1048683 C98.2119419,38.9487771 96.3846521,38.1097864 94.8663341,38.2258543 C94.8052408,38.2303569 94.7451491,38.2368607 94.6855581,38.2443651 C94.6229625,38.2523698 94.5613685,38.2623757 94.5002752,38.2743827 C94.4086353,38.2918929 94.3184977,38.3139058 94.2304132,38.3409216 C94.1417278,38.3674371 94.0545948,38.3989555 93.9699656,38.4354769 C93.8848356,38.4719982 93.8017087,38.5135225 93.7205849,38.56055 C90.3824885,40.4966823 91.0134518,50.109804 93.7205849,52.5762463 Z M86.9106881,34.8859011 C87.5646865,35.1990843 88.3528899,34.8969075 88.8165979,34.6142422 C89.6208257,32.9947952 87.5386468,31.5564541 86.6372706,32.8447074 C86.5656613,33.6882007 86.7028708,34.3215711 86.9106881,34.8859011 L86.9106881,34.8859011 Z" id="Fill-19" fill="#FFFFFF"></path>
                            <path d="M83.6406957,141.98103 C83.631682,139.935334 79.7131995,141.694862 78.0566705,140.619233 C78.0696904,138.546521 77.857867,137.201735 77.6480466,135.176551 C81.4924159,134.800831 84.9201491,135.660834 87.4545183,134.496153 C89.2352871,133.677674 90.3694687,132.275854 91.9483792,131.229242 C92.1081231,131.20773 92.1922515,131.26026 92.2222974,131.365822 C92.6113914,135.272106 92.5553058,140.240512 91.6769648,143.749564 C91.155669,145.831782 90.0830313,147.730392 89.3614297,149.737066 C87.8886812,153.83146 86.5331116,157.886331 84.3212347,161.30383 C81.2755849,161.411893 78.3861735,160.271226 74.9228861,160.350772 C75.5593578,158.898923 76.2093502,157.462133 76.6935894,155.859646 C78.5544304,156.043253 80.0807607,156.559555 81.5980772,157.085363 C81.832435,156.72115 81.5014297,156.56756 81.8699924,156.268885 C80.4443157,155.561472 78.4527752,155.418888 76.9660054,154.77151 C77.3065252,152.797855 77.7116437,150.889189 77.9204625,148.784008 C79.6986774,148.95811 81.7493081,148.859552 83.2325726,149.327826 C83.3787959,147.388692 79.7312271,148.248245 77.9204625,147.831951 C78.2594801,146.039403 78.1893731,143.837115 78.1923777,141.70737 C80.0246751,141.950012 82.1163685,141.837446 83.6406957,141.98103" id="Fill-20" fill="#FFFFFF"></path>
                            <path d="M82.5515329,25.2247513 C82.8880967,25.7045319 82.4218349,26.9857812 83.0963647,27.1293651 C84.0352982,27.0022908 83.3692813,25.8336074 83.3687806,25.0886717 C84.7989641,25.4984114 86.3588456,25.8831363 87.9998509,26.4494675 C89.3519151,26.9162405 91.5237309,27.1238619 91.6769648,28.8983996 C89.0840061,28.8908953 84.6973089,27.2589409 83.2325726,29.442718 C81.3141437,28.7323025 78.1142584,28.3335693 75.4677179,28.3540813 C64.9311315,28.4396314 53.8767546,27.7592335 43.0517278,29.0354798 C42.9986468,27.3795114 43.195948,26.664093 43.5960589,25.6324898 C55.7290826,23.9034786 69.5667087,25.0176302 82.5515329,25.2247513" id="Fill-21" fill="#FFFFFF"></path>
                            <path d="M87.4545183,33.2529462 C88.0619457,33.1353774 88.2722668,33.864804 87.9998509,34.2055032 L87.4545183,34.2055032 L87.4545183,33.2529462" id="Fill-22" fill="#FFFFFF"></path>
                            <path d="M86.6372706,32.8447074 C87.5386468,31.5564541 89.6208257,32.9947952 88.8165979,34.6142422 C88.3528899,34.8969075 87.5646865,35.1990843 86.9106881,34.8859011 C86.7028708,34.3215711 86.5656613,33.6882007 86.6372706,32.8447074 Z M87.9998509,34.2055032 C88.2722668,33.864804 88.0619457,33.1353774 87.4545183,33.2529462 L87.4545183,34.2055032 L87.9998509,34.2055032 L87.9998509,34.2055032 Z" id="Fill-23" fill="#1C1C1C"></path>
                            <path d="M64.0272515,50.2633938 C65.2911812,52.1279842 70.0459404,52.3896372 72.7440596,52.031928 C73.6809901,51.9083558 75.0260436,51.4365799 75.6044266,50.9432914 C78.6836277,48.3197572 76.2529167,41.4697513 73.8332225,40.0574254 C73.0450191,39.5961556 71.2983524,39.300983 70.1556078,39.3765272 C68.2206537,39.506103 66.8625803,39.9228467 65.7979549,40.737323 C63.9331078,42.165158 61.861445,47.0690257 64.0272515,50.2633938 Z M80.371755,34.7503218 C81.5064373,34.7948479 82.3767661,34.57622 82.8239488,33.9333441 C82.9220986,31.9381773 80.694698,31.3653423 79.8268731,32.8447074 C79.7116972,33.7757519 80.0116552,34.2925541 80.371755,34.7503218 Z M75.6044266,29.1705588 C78.8188341,29.2210884 82.4218349,29.3336542 84.3212347,31.0761732 C85.3122477,35.713385 85.5270757,41.7954418 85.8200229,47.9495407 C86.1119687,54.0676185 86.6312615,60.5233938 85.4113991,65.3677267 C80.7022095,66.043622 76.0050382,65.1115769 70.2928173,65.0955676 C70.5001338,62.8007256 70.3589182,58.6878204 70.5647324,55.9782358 C71.454591,55.4614336 73.3434748,55.9417145 73.8332225,55.0256788 C73.0981002,54.400313 71.930818,54.899605 71.110065,55.0256788 C68.2857531,55.460433 64.9221177,55.5004564 61.4387997,55.7065769 C55.6259251,56.0497776 49.522607,56.5870919 44.2770986,55.5699971 C43.3051147,55.3818871 42.3030849,54.6209421 41.4167317,55.161258 C41.3766705,55.4329169 41.4377638,55.6035167 41.5574465,55.7160825 C41.5719687,55.7300907 41.5874924,55.742598 41.6040176,55.754605 C41.620042,55.7671123 41.637068,55.7781188 41.6545948,55.7886249 C41.6991628,55.8151404 41.747737,55.8371533 41.7993157,55.8561644 C41.8203479,55.8636688 41.84138,55.8706729 41.8634136,55.8771767 C41.928513,55.8971884 41.9971177,55.9131978 42.0682263,55.927206 C42.0797439,55.9297074 42.0917622,55.9322089 42.1032798,55.9342101 C42.1508524,55.9432153 42.1989258,55.9517203 42.2469992,55.9602253 C42.2830543,55.9667291 42.3191093,55.9732329 42.3551644,55.9797367 C42.3907187,55.9862405 42.4262729,55.9932446 42.4613265,56.000749 C42.4733448,56.0032504 42.4848624,56.0057519 42.49638,56.0082534 C42.5424503,56.0187595 42.5875191,56.0302662 42.6305849,56.0437741 C42.6631346,56.05378 42.6946827,56.0647864 42.7247286,56.0767934 C42.7552752,56.0893008 42.7843196,56.1028087 42.8113609,56.1173171 C42.8298891,56.127323 42.8474159,56.1383294 42.8644419,56.1493359 C42.8814679,56.1608426 42.8974924,56.1728496 42.9130161,56.1858572 C42.9205275,56.192361 42.928039,56.1993651 42.9350497,56.2063692 C42.9856269,56.2543973 43.0256881,56.3134318 43.0517278,56.3864745 C43.4473318,58.9524751 43.4408219,61.5349854 43.8684748,64.2790901 C41.0061047,64.1905383 38.0906537,64.1545173 35.423081,63.8713517 C34.8917699,59.4722791 34.87875,52.7148274 34.87875,46.7248245 C34.87875,40.8628964 33.7545336,35.4172118 34.742542,30.5313546 C36.1732263,29.9710269 37.7841858,29.9915389 39.3736124,29.9875366 C43.7432836,29.9750293 48.5986965,29.2761205 53.1301147,29.0354798 C56.9214029,28.8328613 61.0717393,29.2345963 64.9797057,29.3066384 C68.7489602,29.3766793 72.3835092,29.1200293 75.6044266,29.1705588 Z M37.0580772,60.0606232 C37.1862729,60.5479081 37.9744763,60.8515857 38.1472401,60.197203 C37.6825306,60.1621826 37.870818,59.4762815 37.4662003,59.3807256 C37.3144687,59.5908484 37.0240252,59.6638912 37.0580772,60.0606232 Z M35.8322057,34.3420831 C35.9864411,35.8419602 38.2854511,35.7754213 38.4201567,34.2055032 C38.4707339,33.6096548 37.9950076,33.1789029 37.602909,32.436969 C36.533276,32.4940023 35.7425688,33.4765769 35.8322057,34.3420831 Z M37.602909,57.8828496 C37.8618043,58.6673084 38.3740864,59.1991194 39.2369037,59.3807256 C39.5098203,58.6172791 38.2994725,58.258069 38.0110321,57.611691 C37.9764794,57.8028028 37.7125765,57.7662815 37.602909,57.8828496 Z M41.4167317,52.1685079 C42.5910245,52.8434026 44.6226261,52.9849854 45.7748853,52.8484055 C47.6913112,52.621773 51.3128402,51.3555325 52.312867,50.2633938 C54.6238953,47.7379169 53.476143,41.6728701 51.3594113,39.9213458 C49.6312729,38.4900088 46.9291476,38.5090199 44.004182,38.8322089 C42.3551644,39.0148157 41.092737,39.6701989 40.1908601,40.8739029 C38.0470872,43.7350761 38.3094878,50.3814628 41.4167317,52.1685079 Z M79.963081,58.1555091 C79.2239526,58.1870275 78.9925994,58.7273435 78.3295872,58.835907 C78.2845183,59.1520919 78.3501185,59.3582124 78.4648437,59.5168051 C79.2249541,59.3231919 79.8138532,58.9584786 79.963081,58.1555091 Z M78.6020031,56.6586337 C77.7381843,56.794213 77.608987,57.6637215 77.37513,58.4276682 C78.368146,58.4216647 78.5073586,57.5631627 78.6020031,56.6586337 L78.6020031,56.6586337 Z" id="Fill-24" fill="#FFFFFF"></path>
                            <path d="M73.4250994,162.936284 C75.782198,163.433075 82.6156307,166.009582 84.1855275,163.617183 C85.5100497,164.941957 86.9973203,166.868584 86.5010627,169.195995 C81.4959213,170.051445 73.3109752,169.94038 69.6112768,167.154751 C70.3839564,165.34069 71.603318,163.248467 73.4250994,162.936284" id="Fill-25" fill="#FFFFFF"></path>
                            <path d="M74.5147129,161.30383 C77.1763265,161.401387 80.6080657,161.812127 83.2325726,162.391466 C83.4534098,164.561235 80.6972018,163.582212 79.41875,163.344023 C77.6585627,163.017832 75.6789904,162.773189 74.3795566,162.391466 C74.2738953,161.879166 74.5448089,161.741586 74.5147129,161.30383" id="Fill-26" fill="#FFFFFF"></path>
                            <path d="M80.779828,33.9333441 C80.1173666,32.6545963 81.9015405,32.6385869 82.0056995,33.6621855 C81.7032378,33.8577999 81.3501988,34.0028847 80.779828,33.9333441" id="Fill-27" fill="#FFFFFF"></path>
                            <path d="M80.779828,33.9333441 C81.3501988,34.0028847 81.7032378,33.8577999 82.0056995,33.6621855 C81.9015405,32.6385869 80.1173666,32.6545963 80.779828,33.9333441 Z M79.8268731,32.8447074 C80.694698,31.3653423 82.9220986,31.9381773 82.8239488,33.9333441 C82.3767661,34.57622 81.5064373,34.7948479 80.371755,34.7503218 C80.0116552,34.2925541 79.7116972,33.7757519 79.8268731,32.8447074 L79.8268731,32.8447074 Z" id="Fill-28" fill="#1C1C1C"></path>
                            <path d="M79.963081,58.1555091 C79.8138532,58.9584786 79.2249541,59.3231919 78.4648437,59.5168051 C78.3501185,59.3582124 78.2845183,59.1520919 78.3295872,58.835907 C78.9925994,58.7273435 79.2239526,58.1870275 79.963081,58.1555091" id="Fill-29" fill="#1C1C1C"></path>
                            <path d="M77.5108372,79.2478438 C78.9630543,81.0729111 78.8974541,86.6846928 79.0101261,89.725471 C79.2009174,94.9245114 78.978578,101.018575 79.41875,107.280237 C79.807844,112.823479 80.3401567,119.110655 78.3295872,123.065468 C73.5147362,125.456366 67.1334939,124.463786 61.3025917,124.017525 C55.5217661,123.576267 48.5496216,123.876943 43.4598509,122.656729 C42.2935703,122.377566 40.592974,121.620623 40.0541514,121.024274 C38.4211583,119.215717 38.5778976,113.928125 38.2839488,110.817806 C37.3695528,101.136144 37.5653517,92.6791984 36.9213685,82.6498332 C36.7866628,80.5441018 36.5037309,78.5509362 37.6209365,77.4232768 C37.6384633,77.4057665 37.6564908,77.3882563 37.6745183,77.3707461 C37.7291017,77.3192159 37.7866896,77.269687 37.8472821,77.2216589 C37.8678135,77.2061498 37.8883448,77.1901404 37.9093769,77.1746314 C38.351552,76.8504418 38.9574771,76.6253101 39.7822362,76.5267525 C39.8949083,76.5132446 40.0070795,76.5007373 40.1192508,76.4892305 C40.2875076,76.4722206 40.4552638,76.4577121 40.6225191,76.4447045 C40.6230199,76.4447045 40.6230199,76.4447045 40.6230199,76.4447045 C41.8979664,76.3476477 43.1503784,76.3721621 44.3807569,76.4321972 C44.4087997,76.4336981 44.4368425,76.4346987 44.4648853,76.4361995 C44.6551758,76.4462054 44.8449656,76.4562112 45.0342546,76.4672177 C45.058792,76.4687185 45.0828287,76.4697191 45.1073662,76.47122 C45.4423777,76.4907314 45.7753861,76.5117437 46.1068922,76.5322557 C46.2701414,76.5422616 46.4333907,76.5527677 46.5956384,76.5622733 C46.7208295,76.5697776 46.8455199,76.5773321 46.9702102,76.5842861 C47.055841,76.5892891 47.1419725,76.5937917 47.2276032,76.5982943 C47.357802,76.6057987 47.4880008,76.6123025 47.6176988,76.618306 C48.2351414,76.6478233 48.8465749,76.6663341 49.4525,76.6628321 C56.6419763,76.6163049 63.1869687,76.6983528 69.7479855,77.3422294 C72.4481078,77.6078847 76.016055,77.3682446 77.5108372,79.2478438 Z M38.9644878,110.001328 C39.3045069,113.156173 39.0015443,118.340705 40.463276,120.207797 C41.6816361,121.764707 46.3407492,122.181951 48.908169,122.38507 C52.7009595,122.684745 55.770646,122.644722 59.1232645,122.793309 C62.5700268,122.944397 65.1099044,123.441688 68.6583219,123.609286 C71.1010512,123.724854 76.0826567,123.960992 77.6480466,122.5207 C79.4833486,120.830161 78.9565443,115.899778 78.8734174,112.8595 C78.6666017,105.334599 78.1923777,98.738742 78.1923777,90.1347104 C78.1923777,86.8487888 78.1633333,81.2024868 76.6935894,79.6560825 C76.6179239,79.576536 76.5303402,79.5014921 76.4326911,79.4304506 C76.3836162,79.3949298 76.3320375,79.3609099 76.2774541,79.3273903 C76.1962802,79.277361 76.1091972,79.2298332 76.0170065,79.1843066 C75.8012271,79.0777443 75.556854,78.983189 75.2884442,78.8991398 C75.2498853,78.8871328 75.2113265,78.8751258 75.1722668,78.8636191 C75.0936468,78.8401053 75.0130237,78.8175922 74.9308983,78.7960796 C74.8487729,78.7740667 74.7646445,78.7530544 74.6790138,78.7330427 C74.6579817,78.7280398 74.6364488,78.7225366 74.6149159,78.7180339 C74.5067508,78.6930193 74.3960818,78.6690053 74.2834098,78.6464921 C74.2608754,78.6419895 74.238341,78.6374868 74.2158066,78.6329842 C74.1472018,78.6194763 74.0785971,78.6064687 74.0089908,78.5939614 C73.8692775,78.5684465 73.7270604,78.5444324 73.5818387,78.5219193 C73.5337653,78.5144149 73.4851911,78.5069105 73.4361162,78.4994061 C73.3870413,78.492402 73.3379664,78.4848976 73.2888914,78.4778935 C73.2393157,78.4708894 73.18969,78.4643856 73.1396636,78.4573815 C73.0400115,78.4438736 72.938857,78.430866 72.8377026,78.4183587 C72.7360474,78.4053511 72.6333907,78.3933441 72.5302332,78.3818373 C72.4270757,78.3698303 72.3234174,78.3583236 72.2187576,78.3478174 C72.0620183,78.3313078 71.9042775,78.3157987 71.7450344,78.3007899 C71.6919534,78.295787 71.6388723,78.2907841 71.5857913,78.2862815 C71.4796292,78.2767759 71.3729664,78.2672703 71.2658028,78.2582651 C71.1055581,78.2447572 70.9448628,78.2317496 70.7835665,78.2192422 C69.8716743,78.1482007 68.9562267,78.0911673 68.1129893,78.0236279 C61.8454205,77.5178321 55.8622859,77.3607402 49.8616246,77.4788092 C45.9917164,77.555354 41.0827217,76.8244266 37.8753249,78.1592071 C37.834763,88.3836864 37.7711659,98.9363575 38.9644878,110.001328 L38.9644878,110.001328 Z" id="Fill-30" fill="#1C1C1C"></path>
                            <path d="M73.8332225,117.349626 C71.2092164,116.233473 70.2722859,121.843754 73.970432,120.343877 C74.8412615,119.44385 74.9684557,117.832908 73.8332225,117.349626 Z M72.0635206,81.2890374 C70.316854,81.2890374 70.567737,84.9296665 72.7440596,84.4188678 C73.3164335,84.2852896 73.6809901,83.6274049 73.6980161,82.6498332 C72.9007989,82.0865038 72.8947898,81.2890374 72.0635206,81.2890374 Z M78.8734174,112.8595 C78.9565443,115.899778 79.4833486,120.830161 77.6480466,122.5207 C76.0826567,123.960992 71.1010512,123.724854 68.6583219,123.609286 C65.1099044,123.441688 62.5700268,122.944397 59.1232645,122.793309 C55.770646,122.644722 52.7009595,122.684745 48.908169,122.38507 C46.3407492,122.181951 41.6816361,121.764707 40.463276,120.207797 C39.0015443,118.340705 39.3045069,113.156173 38.9644878,110.001328 C37.7711659,98.9363575 37.834763,88.3836864 37.8753249,78.1592071 C41.0827217,76.8244266 45.9917164,77.555354 49.8616246,77.4788092 C55.8622859,77.3607402 61.8454205,77.5178321 68.1129893,78.0236279 C68.9562267,78.0911673 69.8716743,78.1482007 70.7835665,78.2192422 C70.9448628,78.2317496 71.1055581,78.2447572 71.2658028,78.2582651 C71.3729664,78.2672703 71.4796292,78.2767759 71.5857913,78.2862815 C71.6388723,78.2907841 71.6919534,78.295787 71.7450344,78.3007899 C71.9042775,78.3157987 72.0620183,78.3313078 72.2187576,78.3478174 C72.3234174,78.3583236 72.4270757,78.3698303 72.5302332,78.3818373 C72.6333907,78.3933441 72.7360474,78.4058514 72.8377026,78.4183587 C72.938857,78.430866 73.0400115,78.4438736 73.1396636,78.4573815 C73.18969,78.4643856 73.2393157,78.4708894 73.2888914,78.4778935 C73.3379664,78.4848976 73.3870413,78.492402 73.4361162,78.4994061 C73.4851911,78.5069105 73.5337653,78.5144149 73.5818387,78.5219193 C73.7270604,78.5444324 73.8692775,78.5684465 74.0089908,78.5939614 C74.0785971,78.606969 74.1472018,78.6199766 74.2158066,78.6329842 C74.238341,78.6374868 74.2608754,78.6419895 74.2834098,78.6464921 C74.3960818,78.6695056 74.5067508,78.6930193 74.6149159,78.7180339 C74.6364488,78.7225366 74.6579817,78.7280398 74.6790138,78.7330427 C74.7646445,78.7536047 74.8487729,78.774567 74.9308983,78.7960796 C75.0130237,78.8180925 75.0936468,78.8406056 75.1722668,78.8636191 C75.2113265,78.8756261 75.2498853,78.8871328 75.2884442,78.8991398 C75.556854,78.9836893 75.8012271,79.0782446 76.0170065,79.1843066 C76.1091972,79.2298332 76.1962802,79.277361 76.2774541,79.3273903 C76.3320375,79.3609099 76.3836162,79.3954301 76.4326911,79.4304506 C76.5303402,79.5014921 76.6179239,79.576536 76.6935894,79.6560825 C78.1633333,81.2024868 78.1923777,86.8487888 78.1923777,90.1347104 C78.1923777,98.738742 78.6666017,105.334599 78.8734174,112.8595 Z M41.6891476,119.800059 C42.5990367,121.35947 44.7978937,120.599026 44.5495145,118.983081 C44.3001338,117.363634 41.4893425,117.4762 41.6891476,119.800059 Z M39.5093196,82.9219924 C40.231422,82.9540111 41.3275956,82.9329988 41.6891476,82.2415945 C41.8664182,80.6456612 40.9500191,79.5660298 39.9184442,79.7921621 C38.7476567,80.0488122 38.7982339,82.0504827 39.5093196,82.9219924 L39.5093196,82.9219924 Z" id="Fill-31" fill="#FFFFFF"></path>
                            <path d="M77.37513,58.4276682 C77.608987,57.6637215 77.7381843,56.794213 78.6020031,56.6586337 C78.5073586,57.5631627 78.368146,58.4216647 77.37513,58.4276682" id="Fill-32" fill="#1C1C1C"></path>
                            <path d="M76.2774541,79.3273903 C76.4026207,79.4427772 76.5208973,79.5598864 76.6334324,79.6821621 C76.5208973,79.5616086 76.4026207,79.4427772 76.2774541,79.3273903" id="Fill-33" fill="#FFFFFF"></path>
                            <path d="M73.2888914,40.8739029 C76.6815711,42.2477063 77.7977752,51.365038 72.3354358,51.2154506 C72.143643,50.6551229 72.9694037,50.5235459 73.2888914,50.1273142 C74.8968964,48.133148 75.3184901,42.9531188 73.2888914,40.8739029" id="Fill-34" fill="#FFFFFF"></path>
                            <path d="M76.0170065,79.1843066 C76.1430123,79.2971885 76.2620367,79.4150323 76.3729848,79.5390784 C76.2620367,79.4150323 76.1430123,79.2971885 76.0170065,79.1843066" id="Fill-35" fill="#FFFFFF"></path>
                            <path d="M75.2884442,78.8991398 C75.556854,79.0037042 75.8012271,79.121339 76.0170065,79.2539116 C75.8012271,79.1219614 75.556854,79.0043266 75.2884442,78.8991398" id="Fill-36" fill="#FFFFFF"></path>
                            <path d="M75.1722668,78.8636191 C75.2919492,78.9452166 75.4100971,79.0303618 75.5282451,79.115507 C75.4100971,79.0303618 75.2919492,78.9487643 75.1722668,78.8636191" id="Fill-37" fill="#FFFFFF"></path>
                            <path d="M74.9308983,78.7960796 C75.0520196,78.909081 75.1709252,79.0273382 75.2868766,79.1508514 C75.1709252,79.0299662 75.0520196,78.9117089 74.9308983,78.7960796" id="Fill-38" fill="#FFFFFF"></path>
                            <path d="M74.6790138,78.7330427 C74.8000322,78.8456687 74.9189275,78.9639259 75.034992,79.0878145 C74.9189275,78.9667416 74.8000322,78.8487659 74.6790138,78.7330427" id="Fill-39" fill="#FFFFFF"></path>
                            <path d="M74.2834098,78.6464921 C74.4043994,78.7581336 74.523238,78.8772178 74.639388,79.0012639 C74.523238,78.8772178 74.4043994,78.7606145 74.2834098,78.6464921" id="Fill-40" fill="#FFFFFF"></path>
                            <path d="M74.0089908,78.5939614 C74.1287995,78.6826543 74.2468843,78.774895 74.3649691,78.8706834 C74.2468843,78.7784427 74.1287995,78.686202 74.0089908,78.5939614" id="Fill-41" fill="#FFFFFF"></path>
                            <path d="M69.2036544,40.3290843 C72.086055,40.0304096 73.7420833,42.2612142 73.970432,44.2758923 C74.5653402,49.5439731 69.5166323,52.8343973 65.6612462,50.6711322 C62.3266552,48.8005383 64.5936162,42.3307548 66.8871177,41.0099824 C67.5120719,40.6497718 68.3928666,40.4131334 69.2036544,40.3290843 Z M66.8871177,45.7722674 C67.05237,48.1981861 71.9418349,47.9650497 70.7009404,44.5480515 C69.3794228,43.334842 66.7594228,43.904175 66.8871177,45.7722674 L66.8871177,45.7722674 Z" id="Fill-42" fill="#FFFFFF"></path>
                            <path d="M72.3354358,51.2154506 C77.7977752,51.365038 76.6815711,42.2477063 73.2888914,40.8739029 C75.3184901,42.9531188 74.8968964,48.133148 73.2888914,50.1273142 C72.9694037,50.5235459 72.143643,50.6551229 72.3354358,51.2154506 Z M70.1556078,39.3765272 C71.2983524,39.300983 73.0450191,39.5961556 73.8332225,40.0574254 C76.2529167,41.4697513 78.6836277,48.3197572 75.6044266,50.9432914 C75.0260436,51.4365799 73.6809901,51.9083558 72.7440596,52.031928 C70.0459404,52.3896372 65.2911812,52.1279842 64.0272515,50.2633938 C61.861445,47.0690257 63.9331078,42.165158 65.7979549,40.737323 C66.8625803,39.9228467 68.2206537,39.506103 70.1556078,39.3765272 Z M66.8871177,41.0099824 C64.5936162,42.3307548 62.3266552,48.8005383 65.6612462,50.6711322 C69.5166323,52.8343973 74.5653402,49.5439731 73.970432,44.2758923 C73.7420833,42.2612142 72.086055,40.0304096 69.2036544,40.3290843 C68.3928666,40.4131334 67.5120719,40.6497718 66.8871177,41.0099824 L66.8871177,41.0099824 Z" id="Fill-43" fill="#1C1C1C"></path>
                            <path d="M73.4361162,78.4994061 C73.5559989,78.5526219 73.6746583,78.6058376 73.7920945,78.6590534 C73.6746583,78.6058376 73.5559989,78.5526219 73.4361162,78.4994061" id="Fill-44" fill="#FFFFFF"></path>
                            <path d="M73.1396636,78.4573815 C73.2589999,78.5070496 73.3773806,78.5531699 73.4956419,78.6028379 C73.3773806,78.5531699 73.2589999,78.5070496 73.1396636,78.4573815" id="Fill-45" fill="#FFFFFF"></path>
                            <path d="M73.970432,120.343877 C70.2722859,121.843754 71.2092164,116.233473 73.8332225,117.349626 C74.9684557,117.832908 74.8412615,119.44385 73.970432,120.343877 Z M72.1992278,119.390819 C72.5247248,119.686992 73.232305,119.749529 73.6980161,119.527399 C73.8657221,119.142174 73.8657221,118.686908 73.6980161,118.302683 C72.8937882,117.93797 72.0024274,118.336703 72.1992278,119.390819 L72.1992278,119.390819 Z" id="Fill-46" fill="#1C1C1C"></path>
                            <path d="M73.6980161,119.527399 C73.232305,119.749529 72.5247248,119.686992 72.1992278,119.390819 C72.0024274,118.336703 72.8937882,117.93797 73.6980161,118.302683 C73.8657221,118.686908 73.8657221,119.142174 73.6980161,119.527399" id="Fill-47" fill="#FFFFFF"></path>
                            <path d="M72.5302332,78.3818373 C72.6496656,78.4634348 72.7685183,78.5485801 72.8862114,78.6408207 C72.7685183,78.5521278 72.6496656,78.4634348 72.5302332,78.3818373" id="Fill-48" fill="#FFFFFF"></path>
                            <path d="M72.4721445,83.60189 C72.0570107,83.6083938 71.9418349,83.3152224 71.654396,83.1941516 C71.6558983,82.83244 71.6028173,82.4171972 71.790604,82.2415945 C72.1246139,82.4982446 72.5092011,82.7033645 73.0164755,82.7859128 C72.966349,83.1896489 72.7806154,83.4573054 72.4721445,83.60189" id="Fill-49" fill="#FFFFFF"></path>
                            <path d="M71.654396,83.1941516 C71.9418349,83.3152224 72.0570107,83.6083938 72.4721445,83.60189 C72.7806154,83.4573054 72.966349,83.1896489 73.0164755,82.7859128 C72.5092011,82.7033645 72.1246139,82.4982446 71.790604,82.2415945 C71.6028173,82.4171972 71.6558983,82.83244 71.654396,83.1941516 Z M72.7440596,84.4188678 C70.567737,84.9296665 70.316854,81.2890374 72.0635206,81.2890374 C72.8947898,81.2890374 72.9007989,82.0865038 73.6980161,82.6498332 C73.6809901,83.6274049 73.3164335,84.2852896 72.7440596,84.4188678 L72.7440596,84.4188678 Z" id="Fill-50" fill="#1C1C1C"></path>
                            <path d="M64.4353746,15.6991808 C64.715302,17.5162434 64.9932263,19.873622 64.9797057,21.5506027 C64.5415367,21.5200848 64.4038265,21.7912434 63.8905428,21.686182 C63.5209786,20.3914248 63.690237,18.6358982 63.4824197,17.3321358 C58.6855963,16.3670714 56.106659,12.5453365 56.6715214,7.94314511 C57.2393884,3.31994149 62.7543081,0.398232885 67.7038647,1.6829842 C70.8977408,2.5114687 73.92987,5.60377706 73.6980161,9.57610006 C73.4846904,13.2142276 71.3654549,15.3459743 68.5221139,16.6517379 C68.0183448,18.5328379 68.7479587,20.31488 67.7038647,21.8222616 C66.6046865,20.4894822 67.4625463,17.5342539 67.4324503,15.2909421 C69.0969916,15.0062756 69.8591552,12.2807317 68.2492473,11.3446343 C67.6592966,11.2540813 67.405409,11.5002253 67.1600845,11.7523727 C66.7318307,11.5447513 66.7894687,10.8513458 66.2055772,10.7998157 C65.4684518,10.9248888 64.9932263,11.311615 64.8444992,12.0250322 C64.3597592,12.0090228 64.3497439,11.5217379 63.7548356,11.6167934 C61.542458,12.4387741 63.2059977,14.9152224 64.4353746,15.6991808" id="Fill-51" fill="#FFFFFF"></path>
                            <path d="M71.7450344,78.3007899 C71.9042775,78.4072215 72.0620183,78.5172007 72.2187576,78.6342754 C72.0620183,78.5172007 71.9042775,78.4072215 71.7450344,78.3007899" id="Fill-52" fill="#FFFFFF"></path>
                            <path d="M71.2658028,78.2582651 C71.3850193,78.322124 71.5036787,78.3895306 71.621781,78.4569373 C71.5036787,78.3895306 71.3850193,78.322124 71.2658028,78.2582651" id="Fill-53" fill="#FFFFFF"></path>
                            <path d="M70.7835665,78.2192422 C70.9448628,78.3079352 71.1055581,78.4001759 71.2658028,78.4959642 C71.1055581,78.4001759 70.9448628,78.3079352 70.7835665,78.2192422" id="Fill-54" fill="#FFFFFF"></path>
                            <path d="M67.7038647,45.7722674 C68.181594,46.9649649 70.6012882,46.6863019 70.0204014,45.0918695 C69.2362041,44.5840726 67.7003593,44.4725073 67.7038647,45.7722674 Z M70.7009404,44.5480515 C71.9418349,47.9650497 67.05237,48.1981861 66.8871177,45.7722674 C66.7594228,43.904175 69.3794228,43.334842 70.7009404,44.5480515 L70.7009404,44.5480515 Z" id="Fill-55" fill="#1C1C1C"></path>
                            <path d="M70.0204014,45.0918695 C70.6012882,46.6863019 68.181594,46.9649649 67.7038647,45.7722674 C67.7003593,44.4725073 69.2362041,44.5840726 70.0204014,45.0918695" id="Fill-56" fill="#FFFFFF"></path>
                            <path d="M65.4774656,56.2734084 C66.773945,56.171849 68.2757378,56.1653452 69.6112768,56.250395 C69.130042,58.8083909 69.5121254,62.2298917 69.2036544,64.959488 C67.403406,64.8799415 65.6697592,64.8939497 63.4824197,64.6873288 C63.8384633,62.4124985 64.2135359,58.4446782 63.6176261,56.5230544 C63.7478249,56.495038 63.8855352,56.4690228 64.0297554,56.4445085 C64.1018654,56.4325015 64.1754778,56.4209947 64.2505925,56.409488 C64.3257072,56.3984816 64.4028249,56.3874751 64.4809442,56.376969 C64.6371827,56.356457 64.7989297,56.3374459 64.9651835,56.3199356 C65.0488112,56.3114307 65.1329396,56.303426 65.2185703,56.2954213 C65.3037003,56.2879169 65.3903326,56.2804125 65.4774656,56.2734084" id="Fill-57" fill="#FFFFFF"></path>
                            <path d="M69.1871292,23.2220802 C69.2566854,23.2946226 69.3083142,23.3721679 69.3388609,23.4557168 C67.9507416,24.2461791 64.6226606,23.8234318 62.8008792,23.7273757 C62.5314679,23.3706671 62.597068,23.1015097 62.7998777,22.9068958 C62.8048853,22.9013926 62.8103937,22.8963897 62.8164029,22.8913868 C62.8274197,22.8813809 62.8389373,22.8713751 62.8509557,22.8613692 C62.8569648,22.8563663 62.862974,22.8518637 62.8689832,22.8468607 C62.8935206,22.8278496 62.9190596,22.8093388 62.9461009,22.7918286 C62.9726414,22.7743183 63.0006843,22.7578087 63.0292278,22.7417993 C63.0512615,22.7297923 63.0732951,22.7182855 63.0953287,22.7072791 C63.1103517,22.700275 63.1253746,22.6927706 63.1408983,22.6857665 C63.1634327,22.6752604 63.1864679,22.6652545 63.2100038,22.655749 C63.2175153,22.6527472 63.2255275,22.6492452 63.2335398,22.6462434 C63.2801109,22.6277326 63.3276835,22.6107226 63.3752561,22.5952136 C63.3827676,22.5927121 63.3907798,22.5902106 63.398792,22.5877092 C63.422328,22.5802048 63.4458639,22.5732007 63.4693998,22.5666969 C63.4769113,22.5646957 63.4849235,22.5626946 63.492435,22.5601931 C63.5079587,22.5561908 63.5234824,22.5521884 63.5390061,22.5481861 C63.6151223,22.529175 63.6882339,22.5141662 63.7548356,22.5031597 C63.9351109,22.4736425 64.1434289,22.4496284 64.370776,22.4316179 L64.3712768,22.4316179 C64.4358754,22.426615 64.5024771,22.4221123 64.5700803,22.41811 C64.7062882,22.4106056 64.8485054,22.4046021 64.9947286,22.4011001 C65.0668387,22.3990989 65.1404511,22.3980983 65.2145642,22.397598 C65.6762691,22.394096 66.1700229,22.4126068 66.6497554,22.4571328 C66.6898165,22.4611352 66.7298777,22.4651375 66.7699388,22.4691398 C66.8094992,22.4731422 66.8485589,22.4776448 66.8876185,22.4816472 C66.9281304,22.4861498 66.9687424,22.4911527 67.0093043,22.4961556 C67.1299885,22.5111644 67.2491705,22.5281744 67.3663494,22.5466852 C67.4009021,22.5521884 67.4349541,22.5576916 67.4690061,22.5631949 C67.6387653,22.5922118 67.8030161,22.6257314 67.9587538,22.6627531 C67.9867966,22.6692569 68.0148394,22.676261 68.0418807,22.6832651 C68.0834442,22.6937712 68.1245069,22.7047776 68.1650688,22.7162844 C68.2146445,22.7297923 68.2632187,22.7443008 68.3102905,22.7593095 C68.4279702,22.7958309 68.5391399,22.8358543 68.6412959,22.8788795 C68.6723433,22.8918871 68.7028899,22.905395 68.7319343,22.9189029 C68.904698,22.99945 69.0484174,23.0900029 69.1560818,23.191062 C69.1665979,23.2010679 69.1771139,23.211574 69.1871292,23.2220802" id="Fill-58" fill="#FFFFFF"></path>
                            <path d="M69.1560818,23.191062 C69.234397,23.2655641 69.3091525,23.3365185 69.3767883,23.4110205 C69.3055927,23.3365185 69.2308372,23.2620164 69.1560818,23.191062" id="Fill-59" fill="#1C1C1C"></path>
                            <path d="M68.6412959,22.8788795 C68.7632332,22.9711201 68.881237,23.0669085 68.9972741,23.1626969 C68.8832038,23.0669085 68.7632332,22.9711201 68.6412959,22.8788795" id="Fill-60" fill="#1C1C1C"></path>
                            <path d="M63.7548356,12.4332709 C64.4694266,12.6258836 64.4163456,13.5863953 65.3888303,13.5214073 C65.963708,13.1797074 65.285172,12.269175 65.7979549,11.7523727 L66.2055772,11.7523727 C66.4163991,12.1781217 66.225107,13.004605 66.6152026,13.2492481 C67.4494763,13.1762054 67.1900803,12.0090228 68.2492473,12.1611118 C68.955776,14.3438882 66.6492546,14.1137537 66.4789946,15.97134 C66.3282645,17.6022937 66.5380849,19.8946343 66.2055772,21.686182 C65.4323968,20.8802106 65.708318,18.9836015 65.525539,17.6042949 C65.4118654,16.7467934 65.2355963,16.0989146 65.2536239,15.4270217 C64.7072898,14.5329988 62.8113953,13.5444207 63.7548356,12.4332709" id="Fill-61" fill="#FFFFFF"></path>
                            <path d="M68.5210471,23.0213881 C68.405661,22.9149566 68.2865924,22.8120728 68.1650688,22.7162844 C68.2865924,22.8120728 68.405661,22.9149566 68.5210471,23.0213881" id="Fill-62" fill="#1C1C1C"></path>
                            <path d="M68.3147321,22.8082095 C68.1989319,22.7585415 68.0788429,22.7088734 67.9587538,22.6627531 C68.0788429,22.7088734 68.1967875,22.7585415 68.3147321,22.8082095" id="Fill-63" fill="#1C1C1C"></path>
                            <path d="M67.7223276,22.6637599 C67.6042471,22.624735 67.4861665,22.5857101 67.3663494,22.5466852 C67.4861665,22.5857101 67.6042471,22.624735 67.7223276,22.6637599" id="Fill-64" fill="#1C1C1C"></path>
                            <path d="M67.2435968,22.584531 C67.1249373,22.5490538 67.0061314,22.5135766 66.8876185,22.4816472 C67.0061314,22.5171243 67.1249373,22.5490538 67.2435968,22.584531" id="Fill-65" fill="#1C1C1C"></path>
                            <path d="M67.0057336,22.5422781 C66.8870742,22.5138963 66.7684148,22.4855146 66.6497554,22.4571328 C66.769898,22.4855146 66.8870742,22.5138963 67.0057336,22.5422781" id="Fill-66" fill="#1C1C1C"></path>
                            <path d="M65.2185703,56.429508 C65.3356231,56.3727445 65.4547416,56.3230765 65.5745486,56.2734084 C65.4547416,56.3230765 65.3356231,56.3762922 65.2185703,56.429508" id="Fill-67" fill="#1C1C1C"></path>
                            <path d="M65.3507069,22.397598 C65.230696,22.4011457 65.1114959,22.4082412 64.9947286,22.422432 C65.1123068,22.4082412 65.230696,22.4011457 65.3507069,22.397598" id="Fill-68" fill="#1C1C1C"></path>
                            <path d="M115.649063,50.5350527 C116.054683,51.7862844 117.729239,53.259646 118.781846,53.664883 C121.090371,54.552402 124.032362,52.1289848 126.5462,53.5288034 C128.749564,52.6913136 129.718544,50.6206027 129.81469,47.6768812 C128.507695,47.1030456 126.629327,47.245629 125.048414,47.2696431 C124.971797,48.3732885 124.661323,49.2417964 123.957748,49.7185752 C121.827496,49.8066267 120.469423,49.1222264 120.416843,47.1335635 C118.90854,46.9059304 117.181904,47.004488 115.649063,47.1335635 C115.56844,48.4453306 115.334583,49.5634845 115.649063,50.5350527 Z M95.8994113,75.0293768 C93.8828326,78.8746255 95.0656384,86.3665067 97.8063226,88.0935167 C99.0747592,88.8919836 101.272114,89.034567 103.255141,88.9094939 C110.399048,88.4602311 119.484419,84.4113634 123.004794,80.2004008 C127.839174,74.4185196 129.990959,67.3413809 129.406567,57.7477706 C125.070447,57.2534816 121.758891,57.0348537 117.556976,57.0673727 C116.967076,60.062124 115.711659,62.3914862 114.150275,64.41567 C115.23393,65.0175219 116.382183,65.9340579 117.692683,66.5924429 C118.853456,67.1762844 120.842492,67.4739585 120.688758,69.0418754 C118.150883,67.8126565 115.606999,66.5899415 113.469736,64.959488 C112.563352,66.5489175 111.116644,67.598031 109.792622,68.7697162 C110.682481,70.1140023 111.34349,71.8630252 112.243865,73.2608426 C112.810229,74.1388561 114.346575,75.0128672 113.605944,76.254093 C112.737619,76.1370246 112.826755,75.1689585 112.516781,74.6211381 C111.505738,72.8350936 109.942852,71.2541691 109.112083,69.3145348 C108.29784,70.4391925 104.842565,70.9775073 104.480512,72.4443651 C104.260176,73.3348859 104.957741,75.2420012 105.162053,76.3901726 C105.276227,77.0375512 105.424453,77.7029903 105.570677,78.2952867 C105.680845,78.7425483 106.398941,79.6425746 105.570677,79.9282417 C104.177049,78.2357519 104.68182,74.646653 103.527057,72.716024 C101.078318,73.5815301 98.6496101,74.4660474 95.8994113,75.0293768 Z M9.13544725,107.688976 C10.5576185,108.032177 10.7609289,110.084377 10.7699427,111.634283 C12.1911124,111.530723 13.2802752,111.757355 14.4470566,111.906442 C15.1901911,109.043768 14.1155505,105.976475 11.9953135,105.102964 C10.4284213,105.363616 7.76886086,104.820849 6.54699541,103.878748 C3.2199159,104.466091 0.915898318,106.764936 1.37159404,110.681726 C2.39715979,110.882343 3.55292431,110.952384 4.77629205,110.954386 C5.25251911,109.093297 6.98566514,107.168672 9.13544725,107.688976 Z M7.7738685,103.606088 C8.68325688,103.9678 9.92615443,103.995366 10.9061506,104.285986 C11.1229817,103.732162 11.2196292,103.057768 11.1785665,102.245293 C9.90512232,101.946618 9.29118502,101.823046 7.7738685,101.837054 L7.7738685,103.606088 Z M62.8008792,23.7273757 C64.6226606,23.8234318 67.9507416,24.2461791 69.3388609,23.4557168 C69.3083142,23.3721679 69.2566854,23.2946226 69.1871292,23.2220802 C69.1776147,23.211574 69.1670986,23.2015682 69.1560818,23.191062 C69.0484174,23.0900029 68.904698,22.99945 68.7319343,22.9189029 C68.7023891,22.905395 68.6723433,22.8918871 68.6412959,22.8788795 C68.5391399,22.8358543 68.4279702,22.7958309 68.3102905,22.7593095 C68.2632187,22.7443008 68.2146445,22.7297923 68.1650688,22.7162844 C68.1245069,22.7047776 68.0834442,22.6937712 68.0418807,22.6832651 C68.0143387,22.676261 67.9867966,22.6692569 67.9587538,22.6627531 C67.8030161,22.6257314 67.6387653,22.5922118 67.4690061,22.5631949 C67.4349541,22.5576916 67.4009021,22.5521884 67.3663494,22.5466852 C67.2491705,22.5281744 67.1299885,22.5111644 67.0093043,22.4961556 C66.9687424,22.4911527 66.9281304,22.4866501 66.8876185,22.4816472 C66.8485589,22.4776448 66.8094992,22.4731422 66.7699388,22.4691398 C66.7298777,22.4651375 66.6903173,22.4611352 66.6497554,22.4571328 C66.1700229,22.4126068 65.6762691,22.394096 65.2145642,22.397598 C65.1404511,22.3980983 65.0673394,22.3990989 64.9947286,22.4011001 C64.8485054,22.4046021 64.7062882,22.4106056 64.5700803,22.41811 C64.5024771,22.4221123 64.4358754,22.426615 64.3712768,22.4316179 L64.370776,22.4316179 C64.1429281,22.4491281 63.9351109,22.4731422 63.7548356,22.5026594 C63.6882339,22.5136659 63.6151223,22.5286747 63.5390061,22.5481861 C63.5234824,22.5516881 63.5079587,22.5556905 63.492435,22.5601931 C63.4849235,22.5626946 63.4769113,22.5646957 63.4693998,22.5666969 C63.4458639,22.5732007 63.422328,22.5802048 63.398792,22.5877092 C63.3907798,22.5902106 63.3827676,22.5927121 63.3752561,22.5952136 C63.3276835,22.6102224 63.2801109,22.6272323 63.2335398,22.6462434 C63.2255275,22.6492452 63.2175153,22.6527472 63.2100038,22.655749 C63.1864679,22.6652545 63.1634327,22.6752604 63.1408983,22.6857665 C63.1253746,22.6927706 63.1103517,22.700275 63.0953287,22.7072791 C63.0732951,22.7182855 63.0512615,22.7297923 63.0292278,22.7417993 C63.0006843,22.7578087 62.9726414,22.7743183 62.9461009,22.7918286 C62.9190596,22.8093388 62.8935206,22.8273493 62.8689832,22.8468607 C62.862974,22.8518637 62.8569648,22.8563663 62.8509557,22.8613692 C62.8389373,22.8708748 62.8274197,22.8808806 62.8164029,22.8913868 C62.8103937,22.8963897 62.8048853,22.9013926 62.7998777,22.9068958 C62.597068,23.1015097 62.5314679,23.3706671 62.8008792,23.7273757 Z M65.3888303,13.5214073 C64.4163456,13.5863953 64.4694266,12.6258836 63.7548356,12.4332709 C62.8113953,13.5444207 64.7072898,14.5329988 65.2536239,15.4270217 C65.2355963,16.0989146 65.4118654,16.7467934 65.525539,17.6042949 C65.708318,18.9836015 65.4323968,20.8802106 66.2055772,21.686182 C66.5380849,19.8946343 66.3282645,17.6022937 66.4789946,15.97134 C66.6492546,14.1137537 68.955776,14.3438882 68.2492473,12.1611118 C67.1900803,12.0090228 67.4494763,13.1762054 66.6152026,13.2492481 C66.225107,13.004605 66.4163991,12.1781217 66.2055772,11.7523727 L65.7979549,11.7523727 C65.285172,12.269175 65.963708,13.1797074 65.3888303,13.5214073 Z M63.6176261,56.5230544 C64.2135359,58.4446782 63.8384633,62.4124985 63.4824197,64.6873288 C65.6697592,64.8939497 67.403406,64.8799415 69.2036544,64.959488 C69.5121254,62.2298917 69.130042,58.8083909 69.6112768,56.250395 C68.2757378,56.1653452 66.773945,56.171849 65.4774656,56.2734084 C65.3903326,56.2804125 65.3037003,56.2874166 65.2185703,56.2954213 C65.1329396,56.303426 65.0488112,56.3114307 64.9651835,56.3199356 C64.7989297,56.3369456 64.6371827,56.3559567 64.4809442,56.376969 C64.4028249,56.3874751 64.3257072,56.3984816 64.2505925,56.409488 C64.1754778,56.4204944 64.1018654,56.4325015 64.0297554,56.4445085 C63.8855352,56.4685225 63.7478249,56.4945377 63.6176261,56.5225541 L63.6176261,56.5230544 Z M63.4824197,17.3321358 C63.690237,18.6358982 63.5209786,20.3914248 63.8905428,21.686182 C64.4038265,21.7912434 64.5415367,21.5200848 64.9797057,21.5506027 C64.9932263,19.873622 64.715302,17.5162434 64.4353746,15.6991808 C63.2059977,14.9152224 61.542458,12.4387741 63.7548356,11.6167934 C64.3497439,11.5217379 64.3597592,12.0090228 64.8444992,12.0250322 C64.9932263,11.311615 65.4684518,10.9248888 66.2055772,10.7998157 C66.7894687,10.8513458 66.7318307,11.5447513 67.1600845,11.7523727 C67.405409,11.5002253 67.6592966,11.2540813 68.2492473,11.3446343 C69.8591552,12.2807317 69.0969916,15.0062756 67.4324503,15.2909421 C67.4625463,17.5342539 66.6046865,20.4894822 67.7038647,21.8222616 C68.7479587,20.31488 68.0183448,18.5328379 68.5221139,16.6517379 C71.3654549,15.3459743 73.4846904,13.2142276 73.6980161,9.57610006 C73.92987,5.60377706 70.8977408,2.5114687 67.7038647,1.6829842 C62.7543081,0.398232885 57.2393884,3.31994149 56.6715214,7.94314511 C56.106659,12.5453365 58.6855963,16.3670714 63.4824197,17.3321358 Z M50.1340405,147.831951 C51.4255122,147.171565 53.7750994,147.806437 55.1732339,147.559292 C55.226315,145.525603 55.2979243,143.510925 55.4461506,141.571791 C53.5297248,141.523762 51.7079434,141.327698 50.8145795,140.619233 C51.9297821,139.743271 53.665432,141.141539 55.4461506,140.891893 C55.6524656,140.176475 55.813211,139.41553 55.9604358,138.641577 C55.9899809,138.486987 56.0190252,138.331396 56.0475688,138.175855 C56.0615902,138.097759 56.0761124,138.020214 56.0901338,137.942218 C56.2183295,137.240758 56.3435206,136.536346 56.4887424,135.852446 C56.5207913,135.700357 56.5543425,135.549269 56.5888953,135.399681 C56.623448,135.249593 56.6595031,135.101507 56.6965596,134.954421 C56.8082301,134.513163 56.933922,134.085913 57.0801453,133.679175 C51.9793578,133.159871 47.1419725,133.02129 41.4167317,132.998777 C41.2860321,142.722964 42.9420604,152.713806 45.7748853,160.350772 C49.0453784,160.089119 52.4500765,159.840974 55.5823586,159.126056 C55.458169,157.571647 55.3655275,155.98572 55.3099427,154.363771 C53.4150497,153.731401 50.6523318,155.033663 49.5897095,154.363771 C50.5066093,153.162068 53.1756843,153.693379 55.3099427,153.410714 C55.4146024,151.582145 55.130669,150.141802 55.1732339,148.375769 C53.6909709,147.904494 51.2817928,148.945102 50.1340405,147.831951 Z M51.632328,169.468104 C54.4641514,169.643207 59.0987271,168.993877 59.804805,167.154751 C60.6365749,164.986984 58.2404167,162.105799 56.5353135,161.847648 C56.8748318,164.050436 54.9483907,163.636194 52.7219916,163.752762 C50.6768693,163.859324 48.599698,164.049936 46.7288417,164.161501 C46.2866667,164.148994 46.632695,163.349526 46.0473012,163.481103 C44.0337271,163.739254 42.3651797,165.39177 42.0972706,167.83565 C44.3967813,168.565576 47.9421942,169.23947 51.632328,169.468104 Z M92.3575038,42.6429374 C91.6819725,45.535629 92.5287653,51.0368461 94.128708,51.7597689 C96.0806881,52.642285 100.146896,50.7126565 100.802948,49.8546548 C102.48146,47.6618724 101.1319,43.7801024 101.34823,41.1455617 C99.455841,39.9933879 97.1172706,39.1448917 95.0826644,39.1048683 C93.7105696,39.0778525 92.661518,41.3436776 92.3575038,42.6429374 Z M86.5010627,169.195995 C86.9973203,166.868584 85.5100497,164.941957 84.1855275,163.617183 C82.6156307,166.009582 75.782198,163.433075 73.4250994,162.936284 C71.603318,163.248467 70.3839564,165.34069 69.6112768,167.154751 C73.3109752,169.94038 81.4959213,170.051445 86.5010627,169.195995 Z M84.1855275,29.442718 C84.2731613,30.1816501 85.0253096,30.7684933 85.2751911,31.4844119 C85.8505696,33.1298742 85.6007381,35.3281597 85.8200229,37.7440726 C86.5987118,46.3160854 87.2987806,56.1893593 86.3648547,65.2321475 C90.2422745,62.8007256 95.1973394,61.4459333 98.8960363,58.835907 C99.6596521,57.0418578 99.1869304,54.5253862 99.440818,51.8958484 C97.3751644,52.4096489 95.9534939,53.1285693 93.7205849,52.5762463 C91.0134518,50.109804 90.3824885,40.4966823 93.7205849,38.56055 C93.8017087,38.5135225 93.8848356,38.4719982 93.9699656,38.4354769 C94.0545948,38.3989555 94.1417278,38.3679374 94.2304132,38.3409216 C94.3184977,38.3144061 94.4086353,38.2923932 94.5002752,38.2743827 C94.5613685,38.262876 94.6229625,38.2528701 94.6855581,38.2443651 C94.7451491,38.2368607 94.8057416,38.2303569 94.8663341,38.2258543 C96.3846521,38.1097864 98.2119419,38.9487771 99.577026,39.1048683 C99.2680543,36.6919573 99.2375076,34.0003833 99.0316934,31.4844119 C94.8292775,29.9810328 89.4991399,29.0965155 84.1855275,29.442718 Z M83.0963647,27.1293651 C82.4218349,26.9857812 82.8880967,25.7045319 82.5515329,25.2247513 C69.5667087,25.0176302 55.7290826,23.9034786 43.5960589,25.6324898 C43.195948,26.664093 42.9986468,27.3795114 43.0517278,29.0354798 C53.8767546,27.7592335 64.9311315,28.4396314 75.4677179,28.3540813 C78.1142584,28.3335693 81.3141437,28.7323025 83.2325726,29.442718 C84.6973089,27.2589409 89.0840061,28.8908953 91.6769648,28.8983996 C91.5237309,27.1238619 89.3519151,26.9162405 87.9998509,26.4494675 C86.3588456,25.8831363 84.7989641,25.4984114 83.3687806,25.0886717 C83.3692813,25.8336074 84.0352982,27.0022908 83.0963647,27.1293651 Z M78.0566705,140.619233 C79.7131995,141.694862 83.631682,139.935334 83.6406957,141.98103 C82.1163685,141.837446 80.0246751,141.950012 78.1923777,141.70737 C78.1893731,143.837115 78.2594801,146.039403 77.9204625,147.831951 C79.7312271,148.248245 83.3787959,147.388692 83.2325726,149.327826 C81.7493081,148.859552 79.6986774,148.95811 77.9204625,148.784008 C77.7116437,150.889189 77.3065252,152.797855 76.9660054,154.77151 C78.4527752,155.418888 80.4443157,155.561472 81.8699924,156.268885 C81.5014297,156.56756 81.832435,156.72115 81.5980772,157.085363 C80.0807607,156.559555 78.5544304,156.043253 76.6935894,155.859646 C76.2093502,157.462133 75.5593578,158.898923 74.9228861,160.350772 C78.3861735,160.271226 81.2755849,161.411893 84.3212347,161.30383 C86.5331116,157.886331 87.8886812,153.83146 89.3614297,149.737066 C90.0830313,147.730392 91.155669,145.831782 91.6769648,143.749564 C92.5553058,140.240512 92.6113914,135.272106 92.2222974,131.365822 C92.1922515,131.26026 92.1081231,131.20773 91.9483792,131.229242 C90.3694687,132.275854 89.2352871,133.677674 87.4545183,134.496153 C84.9201491,135.660834 81.4924159,134.800831 77.6480466,135.176551 C77.857867,137.201735 78.0696904,138.546521 78.0566705,140.619233 Z M79.41875,163.344023 C80.6972018,163.582212 83.4534098,164.561235 83.2325726,162.391466 C80.6080657,161.812127 77.1763265,161.401387 74.5147129,161.30383 C74.5448089,161.741586 74.2738953,161.879166 74.3795566,162.391466 C75.6789904,162.773189 77.6585627,163.017832 79.41875,163.344023 Z M32.4270069,122.929389 C32.5697248,125.192712 32.7575115,128.978926 33.3804625,129.868446 C33.9107722,130.62689 35.6985015,130.875035 37.3304931,131.229242 C42.3336315,132.317379 47.7934671,132.194807 53.2668234,132.454959 C57.0220566,132.633063 60.7832989,133.014786 64.5720833,133.271437 C71.913792,133.768727 79.4507989,134.853362 86.9106881,133.679175 C87.8511239,131.299783 88.8872057,128.275015 88.9528058,125.378821 C89.2152064,113.874593 88.0554358,101.62593 87.8631422,90.6790287 C87.7935359,86.7187127 87.2411927,82.8544529 87.4545183,79.2478438 C87.5311353,77.9705968 87.7449618,76.2926156 87.7269343,74.6211381 C87.7089067,73.0282066 87.3393425,70.8364748 88.2712653,70.4031714 C88.3619037,80.8002516 88.3659098,90.5574576 88.8165979,101.157156 C89.2352871,110.990407 90.6659213,123.853929 88.2712653,132.726668 C90.3709709,131.56694 92.4431346,129.872949 94.8102485,128.236542 C96.1543505,127.305948 100.772852,124.921053 101.34823,123.336627 C102.23258,120.8977 101.364255,116.703748 101.483937,114.219295 C101.889557,105.858906 102.244599,97.5055208 101.483937,89.8615506 C93.7676567,90.4058689 92.6073853,79.7101141 95.4907875,74.2123991 C97.5839832,73.6270568 99.2765673,73.3058689 101.34823,72.5799444 C101.155937,68.5685986 101.38078,64.5487478 100.939106,60.7410211 C98.4077909,58.9869953 96.5223624,61.4794529 93.9919992,62.5100556 C91.0841097,63.6952487 88.0484251,64.9980105 85.9567317,66.5924429 C73.1306498,66.129172 57.1812997,65.2666676 42.9150191,65.2321475 C39.835818,65.2241428 36.6053861,65.024526 34.1977102,64.2790901 C30.483039,64.9749971 30.6803402,68.19488 30.5200956,72.4443651 C30.3463303,77.0410532 30.4249503,81.9179052 30.6563035,87.0043798 C30.8661239,91.6095728 31.0694343,96.5364541 31.4735512,101.292235 C32.0729664,108.360369 31.9688073,115.694157 32.4270069,122.929389 Z M17.4441323,97.2108484 C18.0420451,96.3558484 19.0410703,95.9025834 19.6229587,95.0325746 C19.1722706,94.173072 18.4491667,93.3100673 17.8527561,92.4470626 C17.2758754,91.6140755 16.21125,90.7305588 16.6268846,89.725471 C17.9909671,91.2663721 18.8617966,93.3000614 20.4402064,94.6253365 C21.6966246,93.5657168 23.3025765,92.8578028 25.0712768,92.3119836 C24.8594534,91.2863839 24.4403135,90.1437156 23.9821139,89.0455734 C23.6275726,88.1960767 22.3856766,86.8858104 23.5729893,86.1879023 C24.2149694,88.3586717 25.121854,90.2662873 26.0247324,92.1754037 C27.1649732,91.8497133 29.3132531,92.1598947 30.2476797,92.0393242 C29.768448,86.3229813 29.7679472,80.8467788 29.7018463,75.0293768 C23.3661735,75.0874108 18.729094,77.8560298 14.7199732,81.2890374 C9.33575306,85.8997338 5.38772554,91.443976 4.91350153,100.476258 C8.43487768,100.858482 12.0609136,101.138145 14.7199732,102.380872 C15.0174274,100.501773 15.9393349,99.2445878 16.7625917,97.8907461 C16.1206116,97.3804476 15.3464297,96.7941047 14.5837653,96.2572908 C13.8211009,95.7209772 12.6848662,95.3962873 12.540646,94.6253365 C13.3358601,94.2271036 14.1486009,95.2346928 14.8561812,95.7134728 C15.6999694,96.2838063 16.5122095,96.9491954 17.4441323,97.2108484 Z M44.2770986,55.5699971 C49.522607,56.5870919 55.6259251,56.0497776 61.4387997,55.7065769 C64.9221177,55.5004564 68.2857531,55.460433 71.110065,55.0256788 C71.930818,54.899605 73.0981002,54.400313 73.8332225,55.0256788 C73.3434748,55.9417145 71.454591,55.4614336 70.5647324,55.9782358 C70.3589182,58.6878204 70.5001338,62.8007256 70.2928173,65.0955676 C76.0050382,65.1115769 80.7022095,66.043622 85.4113991,65.3677267 C86.6312615,60.5233938 86.1119687,54.0676185 85.8200229,47.9495407 C85.5270757,41.7954418 85.3122477,35.713385 84.3212347,31.0761732 C82.4218349,29.3336542 78.8188341,29.2210884 75.6044266,29.1705588 C72.3835092,29.1200293 68.7489602,29.3766793 64.9797057,29.3066384 C61.0717393,29.2345963 56.9214029,28.8328613 53.1301147,29.0354798 C48.5986965,29.2761205 43.7432836,29.9750293 39.3736124,29.9875366 C37.7841858,29.9915389 36.1732263,29.9710269 34.742542,30.5313546 C33.7545336,35.4172118 34.87875,40.8628964 34.87875,46.7248245 C34.87875,52.7148274 34.8917699,59.4722791 35.423081,63.8713517 C38.0906537,64.1545173 41.0061047,64.1905383 43.8684748,64.2790901 C43.4408219,61.5349854 43.4473318,58.9524751 43.0517278,56.3864745 C43.0256881,56.3134318 42.9856269,56.2543973 42.9350497,56.2063692 C42.928039,56.1993651 42.9205275,56.192361 42.9130161,56.1858572 C42.8974924,56.1728496 42.8814679,56.1608426 42.8644419,56.1493359 C42.8474159,56.1383294 42.8298891,56.127323 42.8113609,56.1173171 C42.7843196,56.1023084 42.7552752,56.0888005 42.7247286,56.0767934 C42.6946827,56.0642861 42.6631346,56.05378 42.6305849,56.0437741 C42.5875191,56.0302662 42.5424503,56.0187595 42.49638,56.0082534 C42.4848624,56.0057519 42.4733448,56.0032504 42.4613265,56.000749 C42.4262729,55.9932446 42.3907187,55.9862405 42.3551644,55.9797367 C42.3191093,55.9732329 42.2830543,55.9667291 42.2469992,55.9602253 C42.1989258,55.9517203 42.1508524,55.9432153 42.1032798,55.9342101 C42.0917622,55.9322089 42.0797439,55.9297074 42.0682263,55.927206 C41.9971177,55.9126975 41.928513,55.8971884 41.8634136,55.8771767 C41.84138,55.8706729 41.8203479,55.8636688 41.7993157,55.8561644 C41.747737,55.8371533 41.6991628,55.8151404 41.6545948,55.7886249 C41.637068,55.7781188 41.620042,55.7671123 41.6040176,55.754605 C41.5874924,55.742598 41.5719687,55.7295904 41.5574465,55.7160825 C41.4377638,55.6035167 41.3766705,55.4329169 41.4167317,55.161258 C42.3030849,54.6209421 43.3051147,55.3818871 44.2770986,55.5699971 Z M46.3202179,161.30383 C46.400841,162.084286 46.8194801,162.527595 47.0012576,163.208444 C49.1605543,162.86024 53.1541514,163.111387 55.7180657,162.528546 L55.7180657,160.214693 C52.8141323,160.854567 49.6583142,160.882583 46.3202179,161.30383 Z M44.9581384,64.1435108 C46.213555,64.513227 47.8986277,64.0709684 49.0443769,64.2790901 C49.3042737,62.1573493 49.235669,58.9874956 49.4525,56.9307929 C47.5420833,56.8892686 45.8344763,56.6446255 44.1408907,56.3864745 C44.4067966,58.9779901 44.5159633,61.7270977 44.9581384,64.1435108 Z M130.904855,46.7248245 C131.1963,50.1948537 130.303937,52.6537917 128.180696,54.0731217 C127.632359,54.4398362 126.53268,54.6439555 126.818616,55.7065769 C128.117099,56.3714658 129.916846,55.8811791 130.496231,57.202952 C131.131701,58.6522996 130.78417,61.0186834 130.768647,62.373976 C130.722576,66.0976536 129.845237,69.909883 128.588318,73.1242627 C127.433555,76.0834933 125.672867,79.1943125 123.821541,81.1529579 C119.03974,86.2119664 111.309438,89.1661439 102.845516,90.1347104 C103.193547,96.3708572 103.147978,103.941284 102.845516,110.817806 C102.658731,115.086302 103.145474,119.429342 102.709308,122.929389 C102.42888,125.185708 99.810883,126.443944 98.0787385,127.555594 C96.4507531,128.600205 95.0191174,129.709854 93.4476682,130.685925 C94.4191514,137.205737 92.8988303,144.458979 91.1316323,149.056668 C89.3914755,153.586317 87.5872209,158.664786 85.0027752,162.528546 C85.9757607,163.484105 87.3118005,165.165588 87.7269343,166.883092 C88.7199503,170.992996 86.0518769,170.96598 82.1419075,170.96498 C78.1718463,170.963979 75.4201453,170.710331 72.0635206,169.876343 C70.4831078,169.484114 68.4264679,168.758189 68.2492473,167.56299 C68.0804396,166.422823 69.3473739,164.625272 70.1556078,163.752762 C71.0529778,162.786197 71.8081307,162.171837 73.1526835,161.711568 C73.3504354,159.737414 74.7165711,158.118967 75.3320107,156.131805 C77.0947018,150.441477 77.3671678,142.54491 76.4211735,135.44871 C70.3008295,135.213572 64.6311735,134.527721 58.5784327,134.223493 C55.6464564,140.611229 56.2348547,151.851302 56.8077294,160.487352 C59.5739526,161.512952 61.7512768,164.603259 60.6220528,168.243438 C58.7431843,170.089968 55.6013876,171.113066 51.3594113,170.8289 C47.6036774,170.577253 43.0972974,169.908912 40.8718998,168.652127 C40.9790635,165.221121 42.5589755,163.261975 45.3667622,162.528546 C42.0161468,154.488844 40.178341,144.217338 40.1908601,133.271437 C37.7881919,131.917645 34.2022171,133.094333 32.4270069,130.958084 C31.1385398,129.407177 31.3258257,124.350219 31.2011353,121.024274 C30.8516017,111.716831 30.3102752,102.808122 29.9757645,93.6722791 C21.6806002,92.7187215 17.2122783,97.8637303 15.264805,104.149906 C13.9392813,104.293991 13.5476835,102.784108 12.4044381,103.19785 C12.4359862,104.202937 13.6393234,104.202937 14.3118502,105.102964 C15.7845986,107.077618 16.5407531,110.85883 14.9923891,113.132159 C13.2312003,112.89502 11.0959404,113.032601 9.5440711,112.587341 C9.30320336,111.345614 9.97522936,110.045354 9.13544725,109.048771 C6.42380734,108.607513 6.32265291,110.775281 5.59404052,112.315682 C3.7352026,111.897437 1.86985474,112.793461 0.690554281,111.906442 C-0.650493119,110.898353 0.493753823,108.424406 0.55434633,106.736419 C1.40714832,105.62627 2.0906919,104.44608 3.4147133,103.741668 C4.45179664,103.190846 5.79885321,103.272393 6.68320336,102.380872 C6.05474388,101.694971 4.22895642,102.203268 3.68662844,101.428815 C3.8764182,91.29689 8.32120413,85.3233967 14.3118502,80.2004008 C18.3094534,76.7809011 22.7006575,74.1938882 29.430432,73.8046606 C29.915172,71.0680603 29.1009289,67.9842569 29.9757645,65.9125453 C30.7113876,64.1665243 32.4860971,63.8168198 34.1977102,63.0543739 C33.723987,61.0592071 33.9127752,58.4997104 33.9252943,56.1143154 C33.9623509,49.0641925 33.317867,39.6917115 33.1085474,33.3890257 C33.0785015,32.5075102 33.1300803,31.0071328 33.3804625,30.3957753 C34.4290635,27.8307753 38.6379893,29.0790053 41.6891476,28.7623201 C42.0036277,26.2213341 42.1363303,24.2416764 44.8214297,23.8639555 C49.3833945,23.2225805 56.4371636,23.5297601 61.1663838,23.3191369 C62.1829358,22.1939789 62.916055,20.4624664 62.3927561,18.2841925 C54.8697706,17.2856085 52.9863953,5.62979228 59.3961812,1.54640433 C61.8313991,-0.00400234055 66.3928631,-0.578788473 69.6112768,0.866006437 C71.3814794,1.66147162 73.6419304,3.88277063 74.3795566,5.90200146 C76.2228708,10.9589087 73.2964029,15.774725 69.7479855,17.4682153 C69.6202905,18.6844266 69.1145183,20.1502838 69.3388609,21.142364 C69.557695,22.1074283 70.9753593,22.3175512 70.5647324,23.4557168 C73.9483983,23.5012434 76.9394648,23.9660152 80.371755,23.9995348 C81.3592125,24.0095407 82.3091628,23.6823493 83.2325726,23.7273757 C84.8245031,23.8059216 86.5411239,24.5773727 87.9998509,25.0886717 C89.5316896,25.6254857 91.0920719,26.0417291 92.3575038,26.8577063 C92.6579625,27.4205354 92.8477523,28.0914277 93.0390443,28.7623201 C95.6094687,29.1420421 98.4097439,29.2946314 99.9851992,30.6679345 C100.601089,33.1373786 100.433333,36.3892803 100.802948,39.1048683 C101.258593,39.7832651 102.222565,39.9543651 102.5731,40.737323 C102.709308,44.6305998 103.531063,50.1463253 100.66669,51.7597689 C100.344197,53.9325395 100.844461,56.9272908 100.122359,58.6998274 C103.793964,60.111653 102.052305,66.9326419 102.5731,71.4918081 C108.917286,68.6216296 114.823303,64.1340053 116.467813,56.1143154 C117.318612,55.1962785 120.084335,56.1903599 121.097381,55.4339175 C120.541032,54.5909245 119.464388,55.1277384 118.64664,54.8900995 C115.392171,53.9445465 113.136728,49.9151902 114.831816,46.0444266 C116.497359,45.5706495 119.497439,45.7247396 121.369797,45.908347 C122.043326,46.6863019 121.506506,48.6744646 123.141002,48.4933587 C124.133016,48.3062493 123.489534,46.4836834 124.230665,46.0444266 C126.396472,45.7927794 129.509725,45.7542569 130.904855,46.7248245 Z M125.456036,56.3864745 C125.433502,55.5925102 125.693899,55.0817115 125.592745,54.2092013 L125.592745,54.208701 C125.514625,54.179684 125.433502,54.1546694 125.349373,54.1341574 L125.348872,54.1341574 C125.264744,54.1131451 125.178612,54.0966355 125.089977,54.0841281 C125.045409,54.0776243 125.00034,54.0721211 124.954771,54.0676185 C124.909702,54.0626156 124.864132,54.0591135 124.818563,54.0561118 C124.818563,54.0561118 124.818062,54.0561118 124.817561,54.0561118 C124.480046,54.0340989 124.123502,54.0551112 123.777974,54.0981363 C123.772466,54.0986366 123.766957,54.0996372 123.76195,54.1001375 C123.671812,54.1111439 123.583177,54.1236513 123.495042,54.1376594 C123.453479,54.1441633 123.411414,54.1506671 123.370352,54.1581714 C123.344813,54.1626741 123.319274,54.1666764 123.294235,54.1711791 C123.228135,54.1826858 123.163536,54.1946928 123.099438,54.2072001 C123.056873,54.2157051 123.014809,54.2242101 122.973746,54.2322147 C122.932183,54.2407197 122.891621,54.2492247 122.85156,54.2577297 C122.811498,54.2662346 122.771938,54.2747396 122.733379,54.2832446 C122.637232,54.3042569 122.545092,54.3252692 122.459461,54.3452809 L122.459461,54.3457812 C122.250642,54.8160562 122.338777,55.5860064 122.324255,56.250395 C123.440959,56.2223786 124.505084,56.2478935 125.456036,56.3864745 Z M62.5279625,64.6873288 C62.7743387,61.5895173 63.1063456,58.1024781 62.6656728,56.3864745 C60.9740902,56.7701989 58.6745795,56.5290579 57.3530619,56.9307929 C57.3881154,59.7804593 57.1392355,62.1238297 57.216854,64.6873288 C59.0576644,64.8274108 60.6871521,64.8274108 62.5279625,64.6873288 Z M56.3996063,56.7952136 C55.0059786,57.0588678 52.2948394,56.8767613 50.2697477,56.9307929 C50.4540291,59.1295787 50.0253746,61.8441662 50.1340405,64.41567 C51.9538188,64.6828262 54.3059098,64.419172 56.1266896,64.6873288 C56.3124732,62.2479023 56.2719113,59.4287537 56.3996063,56.7952136 L56.3996063,56.7952136 Z" id="Fill-69" fill="#1C1C1C"></path>
                            <path d="M64.4809442,56.6747074 C64.6371827,56.544002 64.7989297,56.4257448 64.9651835,56.3199356 C64.7989297,56.4288568 64.6371827,56.5471141 64.4809442,56.6747074" id="Fill-70" fill="#1C1C1C"></path>
                            <path d="M64.727255,22.41811 C64.6062045,22.4464917 64.4869473,22.4784212 64.3712768,22.5138984 C64.4869473,22.4784212 64.6062045,22.4464917 64.727255,22.41811" id="Fill-71" fill="#1C1C1C"></path>
                            <path d="M64.3857336,56.409488 C64.2646526,56.4910855 64.1459932,56.572683 64.0297554,56.6578283 C64.1459932,56.572683 64.2646526,56.4875378 64.3857336,56.409488" id="Fill-72" fill="#1C1C1C"></path>
                            <path d="M63.7548356,22.6478308 C63.9351109,22.5579958 64.1429281,22.4849098 64.370776,22.4316179 C64.1434289,22.4864324 63.9351109,22.5595185 63.7548356,22.6493534 C63.6882339,22.6828511 63.6151223,22.7285299 63.5390061,22.7863897 C63.6151223,22.7270073 63.6882339,22.6813285 63.7548356,22.6478308" id="Fill-73" fill="#1C1C1C"></path>
                            <path d="M63.6176261,56.7970206 C63.7478249,56.6704778 63.8855352,56.5529737 64.0297554,56.4445085 C63.8855352,56.5552334 63.7478249,56.6727375 63.6176261,56.7992803 L63.6176261,56.7970206" id="Fill-74" fill="#1C1C1C"></path>
                            <path d="M63.492435,22.6333313 C63.6027883,22.6014018 63.7131415,22.5730201 63.8234948,22.5481861 C63.7131415,22.5765678 63.6027883,22.6049496 63.492435,22.6333313" id="Fill-75" fill="#1C1C1C"></path>
                            <path d="M63.398792,22.715701 C63.5174515,22.6624853 63.6361109,22.6128172 63.7547703,22.5666969 C63.6361109,22.6128172 63.5174515,22.6624853 63.398792,22.715701" id="Fill-76" fill="#1C1C1C"></path>
                            <path d="M63.2335398,22.9499854 C63.350522,22.8178155 63.47002,22.6995582 63.589518,22.5952136 C63.47002,22.7030364 63.350522,22.8212936 63.2335398,22.9499854" id="Fill-77" fill="#1C1C1C"></path>
                            <path d="M63.1408983,22.868612 C63.2569782,22.79411 63.3756376,22.7231556 63.4968766,22.655749 C63.3756376,22.7231556 63.2569782,22.79411 63.1408983,22.868612" id="Fill-78" fill="#1C1C1C"></path>
                            <path d="M63.0292278,22.9520716 C63.1478872,22.8669264 63.2665467,22.7853289 63.3852061,22.7072791 C63.2665467,22.7853289 63.1478872,22.8669264 63.0292278,22.9520716" id="Fill-79" fill="#1C1C1C"></path>
                            <path d="M62.8689832,23.1466003 C62.982249,23.0208176 63.1001379,22.9047105 63.2249614,22.7918286 C63.1001379,22.9047105 62.982249,23.0240428 62.8689832,23.1466003" id="Fill-80" fill="#1C1C1C"></path>
                            <path d="M62.8164029,23.0742323 C62.8947181,22.9997302 62.9765931,22.9287759 63.0620279,22.8613692 C62.9765931,22.9323236 62.8947181,23.0032779 62.8164029,23.0742323" id="Fill-81" fill="#1C1C1C"></path>
                            <path d="M62.9173505,22.8913868 C62.8746331,22.926864 62.8354755,22.9623411 62.7998777,23.001366 C62.8354755,22.9623411 62.8746331,22.926864 62.9173505,22.8913868" id="Fill-82" fill="#1C1C1C"></path>
                            <path d="M62.6656728,56.3864745 C63.1063456,58.1024781 62.7743387,61.5895173 62.5279625,64.6873288 C60.6871521,64.8274108 59.0576644,64.8274108 57.216854,64.6873288 C57.1392355,62.1238297 57.3881154,59.7804593 57.3530619,56.9307929 C58.6745795,56.5290579 60.9740902,56.7701989 62.6656728,56.3864745" id="Fill-83" fill="#FFFFFF"></path>
                            <path d="M56.9448735,134.954421 C56.8223508,135.101507 56.7031394,135.249593 56.5888953,135.399681 C56.7031394,135.249593 56.8206951,135.101507 56.9448735,134.954421" id="Fill-84" fill="#1C1C1C"></path>
                            <path d="M50.2697477,56.9307929 C52.2948394,56.8767613 55.0059786,57.0588678 56.3996063,56.7952136 C56.2719113,59.4287537 56.3124732,62.2479023 56.1266896,64.6873288 C54.3059098,64.419172 51.9538188,64.6828262 50.1340405,64.41567 C50.0253746,61.8441662 50.4540291,59.1295787 50.2697477,56.9307929" id="Fill-85" fill="#FFFFFF"></path>
                            <path d="M56.0901338,137.942218 C56.2183295,137.240758 56.3430199,136.536346 56.4887424,135.852446 C56.3435206,136.536346 56.2183295,137.240758 56.0901338,137.942218" id="Fill-86" fill="#1C1C1C"></path>
                            <path d="M56.316414,138.175855 C56.1998005,138.331396 56.0811411,138.486987 55.9604358,138.641577 C56.0811411,138.486987 56.1977546,138.331396 56.316414,138.175855" id="Fill-87" fill="#1C1C1C"></path>
                            <path d="M55.7180657,160.214693 L55.7180657,162.528546 C53.1541514,163.111387 49.1605543,162.86024 47.0012576,163.208444 C46.8194801,162.527595 46.400841,162.084286 46.3202179,161.30383 C49.6583142,160.882583 52.8141323,160.854567 55.7180657,160.214693" id="Fill-88" fill="#FFFFFF"></path>
                            <path d="M50.1340405,147.831951 C51.2817928,148.945102 53.6909709,147.904494 55.1732339,148.375769 C55.130669,150.141802 55.4146024,151.582145 55.3099427,153.410714 C53.1756843,153.693379 50.5066093,153.162068 49.5897095,154.363771 C50.6523318,155.033663 53.4150497,153.731401 55.3099427,154.363771 C55.3655275,155.98572 55.458169,157.571647 55.5823586,159.126056 C52.4500765,159.840974 49.0453784,160.089119 45.7748853,160.350772 C42.9420604,152.713806 41.2860321,142.722964 41.4167317,132.998777 C47.1419725,133.02129 51.9793578,133.159871 57.0801453,133.679175 C56.933922,134.085913 56.8082301,134.513163 56.6965596,134.954421 C56.6590023,135.101507 56.623448,135.249593 56.5888953,135.399681 C56.5543425,135.549269 56.5207913,135.700357 56.4887424,135.852446 C56.3430199,136.536346 56.2183295,137.240758 56.0901338,137.942218 C56.0761124,138.020214 56.0615902,138.097759 56.0475688,138.175855 C56.0185245,138.331396 55.9899809,138.486987 55.9604358,138.641577 C55.813211,139.41553 55.6524656,140.176475 55.4461506,140.891893 C53.665432,141.141539 51.9297821,139.743271 50.8145795,140.619233 C51.7079434,141.327698 53.5297248,141.523762 55.4461506,141.571791 C55.2979243,143.510925 55.226315,145.525603 55.1732339,147.559292 C53.7750994,147.806437 51.4255122,147.171565 50.1340405,147.831951" id="Fill-89" fill="#FFFFFF"></path>
                            <path d="M48.3633372,39.9213458 C53.4320757,39.2049269 54.467156,49.9892335 49.5897095,50.8077121 C52.0204205,48.0320889 51.9097515,41.3636893 48.3633372,39.9213458" id="Fill-90" fill="#FFFFFF"></path>
                            <path d="M44.004182,38.8322089 C46.9291476,38.5090199 49.6312729,38.4900088 51.3594113,39.9213458 C53.476143,41.6728701 54.6238953,47.7379169 52.312867,50.2633938 C51.3128402,51.3555325 47.6913112,52.621773 45.7748853,52.8484055 C44.6226261,52.9849854 42.5910245,52.8434026 41.4167317,52.1685079 C38.3094878,50.3814628 38.0470872,43.7350761 40.1908601,40.8739029 C41.092737,39.6701989 42.3551644,39.0148157 44.004182,38.8322089 Z M48.3633372,39.9213458 C51.9097515,41.3636893 52.0204205,48.0320889 49.5897095,50.8077121 C54.467156,49.9892335 53.4320757,39.2049269 48.3633372,39.9213458 Z M43.8113876,52.0179198 C44.929094,52.2205383 45.9646751,52.0434348 46.8725612,51.6046782 C46.91763,51.5826653 46.9626988,51.5601521 47.0072668,51.5371387 C47.0959021,51.4911118 47.1835359,51.4420831 47.2701682,51.3910532 C47.3132339,51.3655383 47.3562997,51.3395231 47.3988647,51.3125073 C47.4414297,51.2859918 47.4834939,51.2584757 47.5250573,51.2304593 C47.5671216,51.2024429 47.608685,51.1739263 47.6497477,51.1449093 C47.6702791,51.1304008 47.6908104,51.1158923 47.710841,51.1008836 C47.7519037,51.0713663 47.7924656,51.0413487 47.8325268,51.0103306 C47.8725879,50.9798128 47.9121483,50.9487946 47.9517087,50.9167759 C48.0102982,50.8687478 48.0688876,50.8202194 48.1259748,50.7701902 C48.2216208,50.6871416 48.314763,50.600591 48.4059021,50.5110386 C49.8826567,49.0586893 50.7209365,46.8373903 50.5421636,44.8202106 C50.5021024,44.3669456 50.4189755,43.9512025 50.2982913,43.5689789 C50.2752561,43.4974371 50.2512194,43.4268958 50.2261812,43.3578555 C50.0909748,42.9881393 49.918211,42.6519427 49.7128976,42.3467642 C49.6487997,42.2512083 49.5816972,42.1586542 49.5110894,42.0686015 C49.497068,42.0510913 49.4830466,42.0330807 49.4685245,42.0155705 C49.4254587,41.9620392 49.3813914,41.9100088 49.3363226,41.8589789 C49.3062768,41.824959 49.2757301,41.7914394 49.2446827,41.7584201 C49.1981116,41.7083909 49.150539,41.6593622 49.1019648,41.6118344 C47.823513,40.3540989 45.8474962,39.7747601 43.7317661,39.5131071 C39.4462232,40.0889438 38.2734327,47.8865038 41.1383066,50.7371709 C41.3826797,50.9808133 41.6575994,51.1884348 41.9620642,51.3525307 C42.3551644,51.5641545 42.7417546,51.7272499 43.1208333,51.8463195 C43.1208333,51.8463195 43.1208333,51.8463195 43.1213341,51.8463195 C43.1794228,51.8648303 43.2375115,51.8823406 43.2950994,51.8983499 C43.2950994,51.8983499 43.2950994,51.8983499 43.2956002,51.8983499 C43.3822324,51.9228642 43.4688647,51.9448771 43.5544954,51.9648888 C43.5835398,51.9713926 43.6120833,51.9778964 43.6406269,51.9838999 C43.6977141,51.9964073 43.7543005,52.0074137 43.8113876,52.0179198 L43.8113876,52.0179198 Z" id="Fill-91" fill="#1C1C1C"></path>
                            <path d="M50.2261812,43.3578555 C50.3497848,43.4738709 50.4684442,43.5924084 50.5821595,43.7126273 C50.4684442,43.5924084 50.3497848,43.4738709 50.2261812,43.3578555" id="Fill-92" fill="#FFFFFF"></path>
                            <path d="M49.5110894,42.0686015 C49.6356377,42.1834557 49.7540027,42.3015003 49.8670677,42.4233733 C49.7540027,42.3015003 49.6347544,42.1834557 49.5110894,42.0686015" id="Fill-93" fill="#FFFFFF"></path>
                            <path d="M44.1408907,56.3864745 C45.8344763,56.6446255 47.5420833,56.8892686 49.4525,56.9307929 C49.235669,58.9874956 49.3042737,62.1573493 49.0443769,64.2790901 C47.8986277,64.0709684 46.213555,64.513227 44.9581384,64.1435108 C44.5159633,61.7270977 44.4067966,58.9779901 44.1408907,56.3864745" id="Fill-94" fill="#FFFFFF"></path>
                            <path d="M49.3363226,41.8589789 C49.4576789,41.9745915 49.5763383,42.0924709 49.6923009,42.2137507 C49.5763383,42.0924709 49.4576789,41.9745915 49.3363226,41.8589789" id="Fill-95" fill="#FFFFFF"></path>
                            <path d="M49.4579431,41.9666062 C49.3417818,41.8455237 49.2231223,41.7280736 49.1019648,41.6118344 C49.2231223,41.7268628 49.3417818,41.8455237 49.4579431,41.9666062" id="Fill-96" fill="#FFFFFF"></path>
                            <path d="M43.7317661,39.5131071 C45.8474962,39.7747601 47.823513,40.3540989 49.1019648,41.6118344 C49.150539,41.6598625 49.1981116,41.7083909 49.2446827,41.7584201 C49.2757301,41.7914394 49.3062768,41.824959 49.3363226,41.8589789 C49.3813914,41.9100088 49.4254587,41.9620392 49.4685245,42.0155705 C49.4830466,42.0330807 49.497068,42.0510913 49.5110894,42.0686015 C49.5811965,42.1586542 49.6487997,42.2512083 49.7128976,42.3467642 C49.918211,42.6519427 50.0909748,42.9881393 50.2261812,43.3578555 C50.2512194,43.4268958 50.2752561,43.4974371 50.2982913,43.5689789 C50.4189755,43.9512025 50.5021024,44.3669456 50.5421636,44.8202106 C50.7209365,46.8373903 49.8826567,49.0586893 48.4059021,50.5110386 C48.314763,50.6000907 48.2216208,50.6866413 48.1259748,50.7701902 C48.0688876,50.8202194 48.0102982,50.8687478 47.9517087,50.9167759 C47.9121483,50.9482943 47.8725879,50.9798128 47.8325268,51.0103306 C47.7924656,51.0408484 47.7519037,51.0713663 47.710841,51.1008836 C47.6908104,51.1158923 47.6702791,51.1304008 47.6497477,51.1449093 C47.608685,51.1739263 47.5671216,51.2024429 47.5250573,51.2304593 C47.4834939,51.2584757 47.4414297,51.2859918 47.3988647,51.3125073 C47.3562997,51.3395231 47.3132339,51.3655383 47.2701682,51.3910532 C47.1835359,51.4420831 47.0959021,51.4911118 47.0072668,51.5371387 C46.9626988,51.5601521 46.91763,51.5826653 46.8725612,51.6046782 C45.9646751,52.0434348 44.929094,52.2205383 43.8113876,52.0179198 C43.7548012,52.0074137 43.6977141,51.995907 43.6406269,51.9838999 C43.6120833,51.9778964 43.5835398,51.9713926 43.5544954,51.9648888 C43.4688647,51.9448771 43.3822324,51.9228642 43.2956002,51.8983499 C43.2950994,51.8983499 43.2950994,51.8983499 43.2950994,51.8983499 C43.2370107,51.8818403 43.1794228,51.86433 43.1213341,51.8463195 C43.1208333,51.8463195 43.1208333,51.8463195 43.1208333,51.8463195 C42.7417546,51.7267496 42.3551644,51.5631539 41.9620642,51.3520304 C41.6575994,51.1884348 41.3831804,50.9808133 41.1383066,50.7371709 C38.2734327,47.8865038 39.4462232,40.0889438 43.7317661,39.5131071 Z M42.9150191,46.860904 C43.765818,47.7954506 45.3973089,47.9670509 46.592133,47.2696431 C48.8620986,44.7906934 44.8494725,42.0430866 43.1869343,44.0032329 C42.5970336,44.7001404 42.766292,45.7137332 42.9150191,46.860904 L42.9150191,46.860904 Z" id="Fill-97" fill="#FFFFFF"></path>
                            <path d="M46.538693,45.8488122 C46.5889332,45.5891603 46.4558898,45.3340111 46.1935245,45.1108806 C46.4568202,45.3340111 46.5898636,45.5891603 46.538693,45.8488122" id="Fill-98" fill="#FFFFFF"></path>
                            <path d="M46.6606725,45.8488122 C46.6128901,45.966463 46.4958235,46.0853267 46.3046942,46.203584 C46.4934343,46.0853267 46.610501,45.966463 46.6606725,45.8488122" id="Fill-99" fill="#FFFFFF"></path>
                            <path d="M46.6090937,46.1414833 C46.5088668,46.2608305 46.3879033,46.3785428 46.2531154,46.4962551 C46.3879033,46.3785428 46.5054107,46.2608305 46.6090937,46.1414833" id="Fill-100" fill="#FFFFFF"></path>
                            <path d="M46.5083965,46.2865682 C46.4087226,46.4031715 46.3019291,46.5222557 46.1880161,46.64134 C46.3019291,46.5222557 46.4087226,46.4031715 46.5083965,46.2865682" id="Fill-101" fill="#FFFFFF"></path>
                            <path d="M46.0473012,163.481103 C46.632695,163.349526 46.2866667,164.148994 46.7288417,164.161501 C48.599698,164.049936 50.6768693,163.859324 52.7219916,163.752762 C54.9483907,163.636194 56.8748318,164.050436 56.5353135,161.847648 C58.2404167,162.105799 60.6365749,164.986984 59.804805,167.154751 C59.0987271,168.993877 54.4641514,169.643207 51.632328,169.468104 C47.9421942,169.23947 44.3967813,168.565576 42.0972706,167.83565 C42.3651797,165.39177 44.0337271,163.739254 46.0473012,163.481103" id="Fill-102" fill="#FFFFFF"></path>
                            <path d="M46.4348276,46.3936308 C46.3267628,46.511888 46.2081034,46.6318347 46.0788494,46.7484026 C46.2081034,46.6318347 46.3267628,46.511888 46.4348276,46.3936308" id="Fill-103" fill="#FFFFFF"></path>
                            <path d="M46.0708372,44.9457841 C46.2030577,45.058666 46.3222014,45.1769233 46.4268154,45.3005559 C46.3207484,45.1769233 46.2016047,45.058666 46.0708372,44.9457841" id="Fill-104" fill="#FFFFFF"></path>
                            <path d="M46.3707298,46.4986922 C46.2594866,46.6169495 46.1399001,46.7352067 46.0147515,46.853464 C46.1399001,46.7352067 46.2567055,46.6169495 46.3707298,46.4986922" id="Fill-105" fill="#FFFFFF"></path>
                            <path d="M46.3557069,45.2235108 C46.24039,45.101414 46.1225662,44.9839247 45.9997286,44.868739 C46.1250731,44.981621 46.2428968,45.101414 46.3557069,45.2235108" id="Fill-106" fill="#FFFFFF"></path>
                            <path d="M46.1526795,45.0211103 C46.095723,44.9607991 46.0352067,44.9040356 45.9746904,44.8437244 C46.0352067,44.9004879 46.095723,44.9572514 46.1526795,45.0211103" id="Fill-107" fill="#FFFFFF"></path>
                            <path d="M43.5960589,44.9552896 C44.3962806,44.1223025 45.4168387,44.3024078 45.9746904,44.8437244 C45.9832034,44.8522294 45.9917164,44.8602341 45.9997286,44.868739 C46.0242661,44.8937537 46.047802,44.9192686 46.0708372,44.9457841 C46.115906,44.9983148 46.1569687,45.053347 46.1935245,45.1108806 C46.3347401,45.3340111 46.4063494,45.5891603 46.3793081,45.8488122 C46.368792,45.9458689 46.3442546,46.0439263 46.3046942,46.1414833 C46.2896713,46.1780047 46.2726453,46.2140257 46.2531154,46.2500468 C46.2466055,46.2625541 46.2400956,46.2745611 46.2330849,46.2865682 C46.2190635,46.3100819 46.2040405,46.334096 46.1880161,46.35811 C46.1800038,46.3696167 46.1719916,46.3816238 46.1629778,46.3936308 C46.1374388,46.4286513 46.109396,46.464172 46.0788494,46.4986922 C46.058318,46.5217057 46.0372859,46.5447191 46.0147515,46.5677326 C45.9130963,46.6702926 45.7889067,46.7683499 45.6396789,46.860904 C44.6902294,46.9464541 44.0031804,46.771852 43.5960589,46.3165857 L43.5960589,44.9552896" id="Fill-108" fill="#FFFFFF"></path>
                            <path d="M43.5960589,46.3165857 C44.0031804,46.771852 44.6902294,46.9464541 45.6396789,46.860904 C45.7889067,46.7683499 45.9130963,46.6702926 46.0147515,46.5677326 C46.0372859,46.5447191 46.0588188,46.5217057 46.0788494,46.4986922 C46.109396,46.464172 46.1374388,46.4286513 46.1629778,46.3936308 C46.1719916,46.3816238 46.1800038,46.3696167 46.1880161,46.35811 C46.2040405,46.334096 46.2190635,46.3100819 46.2330849,46.2865682 C46.2400956,46.2745611 46.2466055,46.2625541 46.2531154,46.2500468 C46.2726453,46.2140257 46.290172,46.1780047 46.3046942,46.1414833 C46.3447554,46.0439263 46.3692928,45.9458689 46.3793081,45.8488122 C46.4068502,45.5891603 46.3352408,45.3340111 46.1935245,45.1108806 C46.1574694,45.053347 46.1164067,44.9983148 46.0708372,44.9457841 C46.0483028,44.9192686 46.0247668,44.8932534 45.9997286,44.868739 C45.9917164,44.8597338 45.9832034,44.8517291 45.9746904,44.8437244 C45.4168387,44.3024078 44.3962806,44.1223025 43.5960589,44.9552896 L43.5960589,46.3165857 Z M43.1869343,44.0032329 C44.8494725,42.0430866 48.8620986,44.7906934 46.592133,47.2696431 C45.3973089,47.9670509 43.765818,47.7954506 42.9150191,46.860904 C42.766292,45.7137332 42.5970336,44.7001404 43.1869343,44.0032329 L43.1869343,44.0032329 Z" id="Fill-109" fill="#1C1C1C"></path>
                            <path d="M42.5063953,119.663979 C42.9711047,119.870099 43.368211,119.979163 43.7317661,119.663979 L43.7317661,118.983081 C43.2645528,118.530316 42.2505046,118.643882 42.5063953,119.663979 Z M44.5495145,118.983081 C44.7978937,120.599026 42.5990367,121.35947 41.6891476,119.800059 C41.4893425,117.4762 44.3001338,117.363634 44.5495145,118.983081 L44.5495145,118.983081 Z" id="Fill-110" fill="#1C1C1C"></path>
                            <path d="M42.5063953,119.663979 C42.2505046,118.643882 43.2645528,118.530316 43.7317661,118.983081 L43.7317661,119.663979 C43.368211,119.979163 42.9711047,119.870099 42.5063953,119.663979" id="Fill-111" fill="#FFFFFF"></path>
                            <path d="M42.9130161,56.1858572 C42.9664128,56.2319776 43.0198095,56.2816456 43.0696465,56.3313137 C43.0198095,56.2816456 42.9664128,56.2319776 42.9130161,56.1858572" id="Fill-112" fill="#1C1C1C"></path>
                            <path d="M42.8644419,56.1493359 C42.9854745,56.2309334 43.0993875,56.3160786 43.2097408,56.4083193 C43.0993875,56.3160786 42.9854745,56.2309334 42.8644419,56.1493359" id="Fill-113" fill="#1C1C1C"></path>
                            <path d="M42.7247286,56.0767934 C42.8502469,56.1619387 42.9695923,56.2577271 43.0807069,56.3641586 C42.9695923,56.2612748 42.8502469,56.1654864 42.7247286,56.0767934" id="Fill-114" fill="#1C1C1C"></path>
                            <path d="M42.6305849,56.0437741 C42.7536625,56.1147285 42.872953,56.1892306 42.9865631,56.2779235 C42.872953,56.1927783 42.7536625,56.1147285 42.6305849,56.0437741" id="Fill-115" fill="#1C1C1C"></path>
                            <path d="M42.49638,56.0082534 C42.6185815,56.0827554 42.7381264,56.1643529 42.8523582,56.2601413 C42.7381264,56.1643529 42.6185815,56.0827554 42.49638,56.0082534" id="Fill-116" fill="#1C1C1C"></path>
                            <path d="M42.3551644,55.9797367 C42.4743835,56.025857 42.5936026,56.0755251 42.7111426,56.1287408 C42.5936026,56.0755251 42.4743835,56.025857 42.3551644,55.9797367" id="Fill-117" fill="#1C1C1C"></path>
                            <path d="M42.1032798,55.9342101 C42.2211123,55.998069 42.3401852,56.0583802 42.4592581,56.1186914 C42.3401852,56.0583802 42.2211123,55.998069 42.1032798,55.9342101" id="Fill-118" fill="#1C1C1C"></path>
                            <path d="M41.8634136,55.8771767 C41.9765607,56.0190854 42.0958004,56.1290647 42.2193919,56.2319485 C42.0958004,56.1326124 41.9765607,56.0190854 41.8634136,55.8771767" id="Fill-119" fill="#1C1C1C"></path>
                            <path d="M41.7993157,55.8561644 C41.9161211,55.9093802 42.0329265,55.9590482 42.155294,56.0051686 C42.0329265,55.9590482 41.9161211,55.9093802 41.7993157,55.8561644" id="Fill-120" fill="#1C1C1C"></path>
                            <path d="M41.6545948,55.7886249 C41.7642213,55.9279057 41.8837019,56.043535 42.0105731,56.1433967 C41.8837019,56.043535 41.7642213,55.9279057 41.6545948,55.7886249" id="Fill-121" fill="#1C1C1C"></path>
                            <path d="M41.5574465,55.7160825 C41.6606802,55.8118709 41.7710334,55.9041116 41.8885063,55.9892568 C41.7710334,55.9041116 41.6606802,55.8154186 41.5574465,55.7160825" id="Fill-122" fill="#1C1C1C"></path>
                            <path d="M39.9184442,79.7921621 C40.9500191,79.5660298 41.8664182,80.6456612 41.6891476,82.2415945 C41.3275956,82.9329988 40.231422,82.9540111 39.5093196,82.9219924 C38.7982339,82.0504827 38.7476567,80.0488122 39.9184442,79.7921621 L39.9184442,79.7921621 Z" id="Fill-123" fill="#1C1C1C"></path>
                            <path d="M37.4662003,59.3807256 C37.870818,59.4762815 37.6825306,60.1621826 38.1472401,60.197203 C37.9744763,60.8515857 37.1862729,60.5479081 37.0580772,60.0606232 C37.0240252,59.6638912 37.3144687,59.5908484 37.4662003,59.3807256" id="Fill-124" fill="#1C1C1C"></path>
                            <path d="M38.0110321,57.611691 C38.2994725,58.258069 39.5098203,58.6172791 39.2369037,59.3807256 C38.3740864,59.1991194 37.8618043,58.6673084 37.602909,57.8828496 C37.7125765,57.7662815 37.9764794,57.8028028 38.0110321,57.611691" id="Fill-125" fill="#1C1C1C"></path>
                            <path d="M36.6489526,34.4781627 C37.0240252,34.6407578 37.2178211,34.7733353 37.602909,34.6142422 C37.626445,34.0008836 37.6695107,33.3685138 37.0580772,33.3890257 C36.8848127,33.7147162 36.5603173,33.8903189 36.6489526,34.4781627 Z M37.602909,32.436969 C37.9950076,33.1789029 38.4707339,33.6096548 38.4201567,34.2055032 C38.2854511,35.7754213 35.9864411,35.8419602 35.8322057,34.3420831 C35.7425688,33.4765769 36.533276,32.4940023 37.602909,32.436969 L37.602909,32.436969 Z" id="Fill-126" fill="#1C1C1C"></path>
                            <path d="M37.602909,34.6142422 C37.2178211,34.7733353 37.0240252,34.6407578 36.6489526,34.4781627 C36.5603173,33.8903189 36.8848127,33.7147162 37.0580772,33.3890257 C37.6695107,33.3685138 37.626445,34.0008836 37.602909,34.6142422" id="Fill-127" fill="#FFFFFF"></path>
                            <path d="M17.8527561,92.4470626 C18.4491667,93.3100673 19.1722706,94.173072 19.6229587,95.0325746 C19.0410703,95.9025834 18.0420451,96.3558484 17.4441323,97.2108484 C16.5122095,96.9491954 15.6999694,96.2838063 14.8561812,95.7134728 C14.1486009,95.2346928 13.3358601,94.2271036 12.540646,94.6253365 C12.6848662,95.3962873 13.8211009,95.7209772 14.5837653,96.2572908 C15.3464297,96.7941047 16.1206116,97.3804476 16.7625917,97.8907461 C15.9393349,99.2445878 15.0174274,100.501773 14.7199732,102.380872 C12.0609136,101.138145 8.43487768,100.858482 4.91350153,100.476258 C5.38772554,91.443976 9.33575306,85.8997338 14.7199732,81.2890374 C18.729094,77.8560298 23.3661735,75.0874108 29.7018463,75.0293768 C29.7679472,80.8467788 29.768448,86.3229813 30.2476797,92.0393242 C29.3132531,92.1598947 27.1649732,91.8497133 26.0247324,92.1754037 C25.121854,90.2662873 24.2149694,88.3586717 23.5729893,86.1879023 C22.3856766,86.8858104 23.6275726,88.1960767 23.9821139,89.0455734 C24.4403135,90.1437156 24.8594534,91.2863839 25.0712768,92.3119836 C23.3025765,92.8578028 21.6966246,93.5657168 20.4402064,94.6253365 C18.8617966,93.3000614 17.9909671,91.2663721 16.6268846,89.725471 C16.21125,90.7305588 17.2758754,91.6140755 17.8527561,92.4470626" id="Fill-128" fill="#FFFFFF"></path>
                            <path d="M6.54699541,103.878748 C7.76886086,104.820849 10.4284213,105.363616 11.9953135,105.102964 C14.1155505,105.976475 15.1901911,109.043768 14.4470566,111.906442 C13.2802752,111.757355 12.1911124,111.530723 10.7699427,111.634283 C10.7609289,110.084377 10.5576185,108.032177 9.13544725,107.688976 C6.98566514,107.168672 5.25251911,109.093297 4.77629205,110.954386 C3.55292431,110.952384 2.39715979,110.882343 1.37159404,110.681726 C0.915898318,106.764936 3.2199159,104.466091 6.54699541,103.878748" id="Fill-129" fill="#FFFFFF"></path>
                            <path d="M7.7738685,101.837054 C9.29118502,101.823046 9.90512232,101.946618 11.1785665,102.245293 C11.2196292,103.057768 11.1229817,103.732162 10.9061506,104.285986 C9.92615443,103.995366 8.68325688,103.9678 7.7738685,103.606088 L7.7738685,101.837054" id="Fill-130" fill="#FFFFFF"></path>
                        </g>
                    </g>
                </g>
            </g>
        </g>
    </g>
</svg>