<svg width="125px" height="80px" viewBox="0 0 125 80" version="1.1" xmlns="http://www.w3.org/2000/svg" xmlns:xlink="http://www.w3.org/1999/xlink">
    <title>EEN Logo</title>
    <defs>
        <polygon id="path-1" points="0 79.2085161 124.750286 79.2085161 124.750286 0.999483871 0 0.999483871"></polygon>
    </defs>
    <g id="Symbols" stroke="none" stroke-width="1" fill="none" fill-rule="evenodd">
        <g id="EEN-Logo">
            <g id="Page-1">
                <path d="M4.11220816,10.5210323 C4.92086122,9.47329032 6.00165714,8.94425806 7.32608571,8.94425806 C8.44316735,8.94425806 9.35290204,9.29006452 10.0241878,9.97135484 C11.2060653,11.1687742 11.2786367,13.0087742 11.2682694,13.5687742 L2.92773878,13.5687742 C3.06251429,12.4332903 3.49275918,11.3236129 4.11220816,10.5210323 L4.11220816,10.5210323 Z M7.88333061,23.3365161 C10.4103714,23.3365161 12.1624531,22.7868387 13.1862286,22.3274839 L13.1991878,22.3223226 L12.6730449,20.2578065 L12.6678612,20.2397419 L12.6523102,20.2474839 C11.7814531,20.6268387 10.4984939,21.0603871 8.27469796,21.0603871 C6.75588163,21.0603871 5.4625551,20.6190968 4.53208571,19.7855484 C3.4798,18.8410323 2.92773878,17.4500645 2.8940449,15.6513548 L13.9793306,15.6513548 L13.9819224,15.6410323 C14.0467184,15.3055484 14.0778204,14.8823226 14.0778204,14.3016774 C14.0778204,13.4603871 13.9508204,11.3055484 12.7611673,9.49393548 C12.2298408,8.68619355 11.5559633,8.05651613 10.7602694,7.61522581 C9.85053469,7.11458065 8.77233061,6.86167742 7.55675918,6.86167742 C5.33814694,6.86167742 3.44610612,7.71587097 2.08539184,9.33393548 C0.794657143,10.8694194 0.0819020408,13.0139355 0.0819020408,15.3752258 C0.0819020408,20.2113548 3.14545306,23.3365161 7.88333061,23.3365161 L7.88333061,23.3365161 Z" id="Fill-1" fill="#FFFFFF"></path>
                <path d="M33.2581898,17.9816774 C33.2581898,19.9300645 33.6236388,21.2874839 34.3752714,22.1287742 C35.0906184,22.908129 36.1973327,23.3365161 37.493251,23.3365161 C38.7477,23.3365161 39.6315163,23.0913548 40.048802,22.9442581 L40.0591694,22.9416774 L39.9269857,20.748129 L39.9269857,20.7300645 L39.9088429,20.7352258 C39.4552714,20.8745806 38.9731898,20.9313548 38.2448837,20.9313548 C36.7623531,20.9313548 36.1014347,19.992 36.1014347,17.8836129 L36.1014347,9.432 L40.2224551,9.432 L40.2224551,7.2203871 L36.1014347,7.2203871 L36.1014347,3.43716129 L33.2685571,4.32232258 L33.2581898,4.32490323 L33.2581898,7.2203871 L30.8063122,7.2203871 L30.8063122,9.432 L33.2581898,9.432 L33.2581898,17.9816774 Z" id="Fill-3" fill="#FFFFFF"></path>
                <path d="M44.9222327,10.5210323 C45.7308857,9.47329032 46.8116816,8.94425806 48.1361102,8.94425806 C49.2531918,8.94425806 50.1629265,9.29006452 50.8342122,9.97135484 C52.0160898,11.1687742 52.0860694,13.0087742 52.0782939,13.5687742 L43.7377633,13.5687742 C43.8725388,12.4332903 44.3027837,11.3236129 44.9222327,10.5210323 M48.6933551,23.3365161 C51.2203959,23.3365161 52.9724776,22.7868387 53.9962531,22.3274839 L54.0092122,22.3223226 L53.4830694,20.2578065 L53.4778857,20.2397419 L53.4623347,20.2474839 C52.5914776,20.6268387 51.3085184,21.0603871 49.0847224,21.0603871 C47.5659061,21.0603871 46.2725796,20.6190968 45.3421102,19.7855484 C44.2872327,18.8410323 43.7377633,17.4500645 43.7040694,15.6513548 L54.7893551,15.6513548 L54.7919469,15.6410323 C54.8567429,15.3055484 54.8878449,14.8823226 54.8878449,14.3016774 C54.8878449,13.4603871 54.7608449,11.3055484 53.5686,9.49393548 C53.0398653,8.68619355 52.3659878,8.05651613 51.5702939,7.61522581 C50.6605592,7.11458065 49.5823551,6.86167742 48.3641918,6.86167742 C46.1481714,6.86167742 44.2561306,7.71587097 42.8954163,9.33393548 C41.6046816,10.8694194 40.8919265,13.0139355 40.8919265,15.3752258 C40.8919265,20.2113548 43.9528857,23.3365161 48.6933551,23.3365161" id="Fill-5" fill="#FFFFFF"></path>
                <path d="M95.4811918,4.57935484 L95.5148857,4.57935484 C96.7045388,4.57935484 97.3291714,3.68645161 97.3291714,2.80645161 C97.3291714,1.75870968 96.5801306,1 95.5459878,1 C94.4962939,1 93.731702,1.75870968 93.731702,2.80645161 C93.731702,3.81806452 94.4833347,4.57935484 95.4811918,4.57935484" id="Fill-7" fill="#FFFFFF"></path>
                <mask id="mask-2" fill="white">
                    <use xlink:href="#path-1"></use>
                </mask>
                <g id="Clip-10"></g>
                <polygon id="Fill-9" fill="#FFFFFF" mask="url(#mask-2)" points="94.0940408 23.0123871 97.0020816 23.0123871 97.0020816 7.22141935 94.0940408 7.22141935"></polygon>
                <path d="M103.693427,23.3375484 C107.277937,23.3375484 109.595039,21.464 109.595039,18.5685161 C109.595039,17.4149677 109.247733,16.4756129 108.532386,15.6962581 C107.866284,14.9685161 106.852876,14.3594839 105.432549,13.8304516 C103.382406,13.020129 102.464896,12.4420645 102.464896,11.144 C102.464896,10.0807742 103.270957,9.00722581 105.0671,9.00722581 C106.163447,9.00722581 107.249427,9.31432258 108.29912,9.91819355 L108.314671,9.92851613 L109.006692,7.85883871 L109.009284,7.84593548 L109.001508,7.84077419 C108.05808,7.22658065 106.611835,6.86012903 105.131896,6.86012903 C103.517182,6.86012903 102.133141,7.3323871 101.127508,8.22529032 C100.178896,9.06916129 99.6553449,10.2304516 99.6553449,11.500129 C99.6553449,11.6059355 99.6760796,11.7091613 99.6864469,11.8123871 C99.6864469,11.8356129 99.6890388,11.8562581 99.6916306,11.8794839 C99.7123653,12.0833548 99.7512429,12.2820645 99.8056714,12.4781935 C99.8108551,12.5014194 99.8186306,12.5272258 99.8264061,12.5504516 C99.8860184,12.7465806 99.9637735,12.9349677 100.05708,13.1207742 C100.067447,13.1388387 100.077814,13.1594839 100.088182,13.1775484 C100.189263,13.3710968 100.31108,13.5594839 100.451039,13.740129 C100.456222,13.7452903 100.461406,13.7530323 100.46659,13.7607742 C100.541753,13.8562581 100.603957,13.9543226 100.689488,14.0472258 C100.772427,14.1375484 100.8761,14.2175484 100.969406,14.3052903 C100.977182,14.3104516 100.982365,14.3181935 100.990141,14.3259355 C101.692529,14.9710968 102.651508,15.5310968 103.885222,15.9775484 C104.989345,16.387871 105.678773,16.7620645 106.119386,17.1852903 C106.580733,17.6291613 106.785488,18.1349677 106.785488,18.8291613 C106.785488,20.2872258 105.655447,21.1569032 103.758222,21.1569032 C102.322345,21.1569032 100.803529,20.5633548 99.9404469,20.0523871 L99.9248959,20.0420645 L99.2302837,22.2098065 L99.2276918,22.2227097 L99.2380592,22.227871 C100.443263,22.9323871 102.065753,23.3375484 103.693427,23.3375484" id="Fill-11" fill="#FFFFFF" mask="url(#mask-2)"></path>
                <path d="M113.600463,13.5700645 C113.735239,12.4345806 114.165484,11.3223226 114.784933,10.5223226 C115.593586,9.47458065 116.674382,8.94296774 117.99881,8.94296774 C119.115892,8.94296774 120.025627,9.28877419 120.696912,9.97006452 C121.87879,11.1700645 121.948769,13.0100645 121.940994,13.5700645 L113.600463,13.5700645 Z M123.433892,9.49522581 C122.902565,8.68748387 122.228688,8.05522581 121.432994,7.61651613 C120.523259,7.11587097 119.445055,6.8603871 118.229484,6.8603871 C116.010871,6.8603871 114.118831,7.71716129 112.758116,9.33264516 C111.467382,10.868129 110.754627,13.0152258 110.754627,15.3765161 C110.754627,20.2126452 113.818178,23.3378065 118.556055,23.3378065 C121.083096,23.3378065 122.835178,22.788129 123.858953,22.3261935 L123.871912,22.3210323 L123.345769,20.2565161 L123.340586,20.2410323 L123.322443,20.2461935 C122.454178,20.6255484 121.171218,21.0590968 118.947422,21.0590968 C117.428606,21.0590968 116.13528,20.6203871 115.20481,19.7868387 C114.152524,18.8423226 113.600463,17.4513548 113.566769,15.6526452 L124.652055,15.6526452 L124.654647,15.6397419 C124.719443,15.3068387 124.750545,14.8810323 124.750545,14.3003871 C124.750545,13.4590968 124.623545,11.3068387 123.433892,9.49522581 L123.433892,9.49522581 Z" id="Fill-12" fill="#FFFFFF" mask="url(#mask-2)"></path>
                <path d="M7.55520408,37.3550968 C10.2377551,37.3550968 10.890898,39.7654194 10.8597959,41.2312258 L3.8592449,41.2312258 C4.02253061,39.6028387 5.06963265,37.3550968 7.55520408,37.3550968 M8.20834694,51.1615484 C10.4995306,51.1615484 12.3967551,50.7409032 13.7704286,50.1525161 L13.1820816,47.4170323 C11.938,47.8402581 10.6291224,48.1344516 8.76559184,48.1344516 C6.18153061,48.1344516 3.95773469,46.8983226 3.8592449,44.0312258 L14.5220612,44.0312258 C14.5868571,43.6725161 14.6516531,43.0867097 14.6516531,42.3383226 C14.6516531,38.851871 12.9514082,34.6196129 7.78328571,34.6196129 C2.68255102,34.6196129 0,38.7563871 0,43.1512258 C0,48.0028387 3.04281633,51.1615484 8.20834694,51.1615484" id="Fill-13" fill="#FFFFFF" mask="url(#mask-2)"></path>
                <path d="M27.0942837,48.459871 L27.1927735,48.459871 L27.3897531,50.8366452 L30.8887327,50.8366452 C30.8239367,49.5334194 30.756549,47.972129 30.756549,46.0830968 L30.756549,34.976 L26.7340184,34.976 L26.7340184,44.5527742 C26.7340184,45.0069677 26.6692224,45.4637419 26.5059367,45.7889032 C26.1119776,46.8314839 25.0674673,47.9385806 23.4320184,47.9385806 C21.3041204,47.9385806 20.453998,46.2456774 20.453998,43.6082581 L20.453998,34.976 L16.4314673,34.976 L16.4314673,44.292129 C16.4314673,49.4689032 19.0803245,51.1953548 21.9598551,51.1953548 C24.8367939,51.1953548 26.4074469,49.5669677 27.0942837,48.459871" id="Fill-14" fill="#FFFFFF" mask="url(#mask-2)"></path>
                <path d="M55.4689347,42.8588387 C55.4689347,46.0820645 53.8671796,48.2962581 51.5759959,48.2962581 C49.1552204,48.2962581 47.6182612,45.984 47.6182612,42.9233548 C47.6182612,40.2859355 48.7638531,37.5169032 51.6096898,37.5169032 C54.3570367,37.5169032 55.4689347,40.384 55.4689347,42.8588387 M43.4661388,43.0214194 C43.4661388,48.1336774 46.9651184,51.1943226 51.4464041,51.1943226 C55.5026286,51.1943226 59.623649,48.5904516 59.623649,42.7607742 C59.623649,37.940129 56.4512408,34.6188387 51.7081796,34.6188387 C46.9003224,34.6188387 43.4661388,37.8110968 43.4661388,43.0214194" id="Fill-15" fill="#FFFFFF" mask="url(#mask-2)"></path>
                <path d="M82.6132408,41.2299355 C82.7765265,39.6015484 83.8236286,37.3538065 86.3092,37.3538065 C88.991751,37.3538065 89.6448939,39.764129 89.6137918,41.2299355 L82.6132408,41.2299355 Z M93.4082408,42.3370323 C93.4082408,38.8531613 91.7054041,34.6183226 86.5372816,34.6183226 C81.4365469,34.6183226 78.7539959,38.7550968 78.7539959,43.1525161 C78.7539959,48.004129 81.7968122,51.1628387 86.9649347,51.1628387 C89.2535265,51.1628387 91.150751,50.7396129 92.5244245,50.1538065 L91.9360776,47.4183226 C90.6919959,47.8415484 89.3831184,48.1331613 87.5195878,48.1331613 C84.9355265,48.1331613 82.7117306,46.8970323 82.6132408,44.0299355 L93.2760571,44.0299355 C93.3408531,43.6738065 93.4082408,43.0854194 93.4082408,42.3370323 L93.4082408,42.3370323 Z" id="Fill-16" fill="#FFFFFF" mask="url(#mask-2)"></path>
                <path d="M10.8255837,62.4689032 C8.14303265,62.4689032 6.57237959,64.0327742 5.98403265,64.8792258 L5.88813469,64.8792258 L5.62635918,62.8276129 L0.523032653,62.8276129 C0.587828571,64.3243871 0.655216327,66.1489032 0.655216327,68.2985806 L0.655216327,78.8482581 L6.57237959,78.8482581 L6.57237959,69.7643871 C6.57237959,69.3411613 6.60607347,68.8843871 6.73825714,68.5901935 C7.00003265,67.9708387 7.52099184,67.1914839 8.66658367,67.1914839 C10.1076449,67.1914839 10.7270939,68.2650323 10.7270939,70.1205161 L10.7270939,78.8482581 L16.646849,78.8482581 L16.646849,69.4056774 C16.646849,65.0082581 14.5863388,62.4689032 10.8255837,62.4689032" id="Fill-17" fill="#FFFFFF" mask="url(#mask-2)"></path>
                <path d="M23.7453714,68.9171613 C23.8438612,67.908129 24.530698,66.3107097 26.2646367,66.3107097 C28.1281673,66.3107097 28.5532286,68.0061935 28.5532286,68.9171613 L23.7453714,68.9171613 Z M26.5575143,62.468129 C20.6377592,62.468129 18.2195755,67.2887742 18.2195755,71.0023226 C18.2195755,76.0810323 21.4230857,79.1752258 27.0810653,79.1752258 C29.0767796,79.1752258 31.1709837,78.9145806 33.0993102,78.1661935 L32.3476776,74.2565161 C30.9092082,74.7132903 29.4681469,74.875871 27.9648816,74.875871 C25.8706776,74.875871 24.0071469,74.1584516 23.8101673,72.8913548 L33.7550449,72.8913548 C33.8535347,72.4990968 33.9831265,71.6190968 33.9831265,70.6745806 C33.9831265,66.2797419 31.7593306,62.468129 26.5575143,62.468129 L26.5575143,62.468129 Z" id="Fill-18" fill="#FFFFFF" mask="url(#mask-2)"></path>
                <path d="M42.4809816,58.2673548 L36.7245122,59.8312258 L36.7245122,62.8273548 L34.728798,62.8273548 L34.728798,67.1267097 L36.7245122,67.1267097 L36.7245122,72.7267097 C36.7245122,75.1705806 37.2480633,76.731871 38.2277776,77.7099355 C39.0804918,78.5563871 40.5189612,79.1757419 42.2529,79.1757419 C43.7561653,79.1757419 45.0650429,78.9796129 45.7518796,78.7189677 L45.7518796,74.2570323 C45.2620224,74.3886452 45.031349,74.3886452 44.3445122,74.3886452 C42.9060429,74.3886452 42.4809816,73.6067097 42.4809816,71.7176774 L42.4809816,67.1267097 L45.8166755,67.1267097 L45.8166755,62.8273548 L42.4809816,62.8273548 L42.4809816,58.2673548 Z" id="Fill-19" fill="#FFFFFF" mask="url(#mask-2)"></path>
                <path d="M64.9345816,68.4609032 C64.6080102,70.2854194 64.3125408,72.1409032 64.1181531,74.0299355 L64.0507653,74.0299355 C63.7889898,72.1409032 63.3639286,70.3163871 63.0062551,68.5254194 L61.7621735,62.8273548 L57.1512959,62.8273548 L55.8735204,68.7550968 C55.546949,70.2854194 55.0907857,72.1409032 54.7953163,74.0299355 L54.7305204,74.0299355 C54.5024388,72.1409032 54.2069694,70.3163871 53.9451939,68.7215484 L53.0302755,62.8273548 L47.0120306,62.8273548 L51.6229082,78.8505806 L57.182398,78.8505806 L58.3927857,74.0299355 C58.7193571,72.6621935 58.9811327,71.2609032 59.2118061,69.2092903 L59.276602,69.2092903 C59.6031735,71.2609032 59.8312551,72.5976774 60.1604184,74.0944516 L61.2723163,78.8505806 L66.8318061,78.8505806 L71.6396633,62.8273548 L65.8831939,62.8273548 L64.9345816,68.4609032 Z" id="Fill-20" fill="#FFFFFF" mask="url(#mask-2)"></path>
                <path d="M80.4583878,75.0717419 L80.4246939,75.0717419 C78.6259592,75.0717419 77.8406327,73.2472258 77.8406327,70.8369032 C77.8406327,68.7207742 78.4963673,66.6046452 80.4583878,66.6046452 C82.1923265,66.6046452 82.9102653,68.6227097 82.9102653,70.8369032 C82.9102653,73.4098065 82.0601429,75.0717419 80.4583878,75.0717419 M80.6216735,62.467871 C75.1269796,62.467871 71.7575918,65.8562581 71.7575918,70.9685161 C71.7575918,76.1788387 75.4872449,79.2085161 80.295102,79.2085161 L80.3262041,79.2085161 C84.8074898,79.2085161 88.995898,76.504 88.995898,70.6743226 C88.995898,65.8562581 85.6602041,62.467871 80.6216735,62.467871" id="Fill-21" fill="#FFFFFF" mask="url(#mask-2)"></path>
                <path d="M120.166104,62.8268387 L113.134451,62.8268387 L110.485594,67.3868387 C110.125329,67.9726452 109.798757,68.6229677 109.438492,69.3403871 L109.373696,69.3403871 L109.373696,58.1661935 L103.453941,59.8307097 L103.453941,78.8500645 L109.373696,78.8500645 L109.373696,74.2900645 L110.55039,72.7261935 L113.722798,78.8500645 L120.982533,78.8500645 L114.606614,69.275871 L120.166104,62.8268387 Z" id="Fill-22" fill="#FFFFFF" mask="url(#mask-2)"></path>
                <path d="M57.3384265,23.011871 L60.2464673,23.011871 L60.2464673,14.5628387 C60.2464673,14.0983226 60.2801612,13.6492903 60.3449571,13.2286452 C60.7544673,11.0221935 62.2629163,9.59509677 64.188651,9.59509677 C64.5877939,9.59509677 64.8832633,9.62864516 65.1683653,9.6596129 L65.1865082,9.66219355 L65.1865082,6.92929032 L65.093202,6.9163871 C64.8651204,6.888 64.649998,6.86219355 64.3856306,6.86219355 C63.4292429,6.86219355 62.506549,7.18477419 61.7160388,7.7963871 C60.9177531,8.41316129 60.3112633,9.28283871 59.9587735,10.3150968 L59.886202,10.3150968 L59.7566102,7.23380645 L59.7566102,7.22090323 L59.7099571,7.22090323 L57.2606714,8.17574194 C57.3151,9.29574194 57.3384265,10.5628387 57.3384265,12.1525161 L57.3384265,23.011871 Z" id="Fill-23" fill="#FFFFFF" mask="url(#mask-2)"></path>
                <path d="M84.0929204,23.011871 L87.0009612,23.011871 L87.0009612,14.5628387 C87.0009612,14.1060645 87.0346551,13.644129 87.099451,13.2286452 C87.5089612,11.0221935 89.0174102,9.59509677 90.9457367,9.59509677 C91.3422878,9.59509677 91.6377571,9.62864516 91.9228592,9.6596129 L91.941002,9.66219355 L91.941002,6.92929032 L91.8476959,6.9163871 C91.6196143,6.888 91.4044918,6.86219355 91.1401245,6.86219355 C90.1837367,6.86219355 89.258451,7.18477419 88.4705327,7.7963871 C87.6722469,8.41316129 87.0657571,9.28283871 86.7132673,10.3150968 L86.6406959,10.3150968 L86.5111041,7.23380645 L84.0177571,8.20670968 C84.0695939,9.3163871 84.0929204,10.5757419 84.0929204,12.1525161 L84.0929204,23.011871 Z" id="Fill-24" fill="#FFFFFF" mask="url(#mask-2)"></path>
                <path d="M69.7942755,13.8456774 C69.7942755,13.5566452 69.8590714,13.2185806 69.9186837,12.9218065 C69.9316429,12.8495484 69.944602,12.7772903 69.9575612,12.7101935 C70.4888878,10.6276129 72.2850306,9.17212903 74.3248061,9.17212903 C75.7529082,9.17212903 76.9529286,9.77341935 77.7926837,10.9114839 C78.5624592,11.9566452 78.9875204,13.4147097 78.9875204,15.0172903 C78.9875204,16.816 78.5520918,18.336 77.7278878,19.4095484 C76.8803571,20.5114839 75.659602,21.092129 74.1952143,21.092129 C72.1658061,21.092129 70.4111327,19.7192258 69.9238673,17.7501935 C69.8383367,17.4353548 69.7942755,17.0430968 69.7942755,16.5811613 L69.7942755,13.8456774 Z M66.8862347,29.4611613 L66.9717653,29.4611613 L69.7942755,29.4611613 L69.7942755,20.896 L69.8357449,20.896 C70.3022755,21.6624516 70.9917041,22.292129 71.8314592,22.7179355 C72.6738061,23.1437419 73.6716633,23.3708387 74.7161735,23.3708387 C76.6445,23.3708387 78.4199082,22.619871 79.7132347,21.2572903 C81.1620714,19.7295484 81.9292551,17.5282581 81.9292551,14.8882581 C81.9292551,13.7166452 81.755602,12.612129 81.4160714,11.6108387 C81.0895,10.6430968 80.6151939,9.79148387 80.0035204,9.07664516 C78.7801735,7.64954839 77.0669694,6.86245161 75.1749286,6.86245161 C72.6867653,6.86245161 70.7506633,7.92051613 69.5739694,9.92309677 L69.5325,9.92309677 L69.3718061,7.27535484 L66.8110714,8.27406452 C66.8629082,9.40954839 66.8862347,10.699871 66.8862347,12.379871 L66.8862347,29.4611613 Z" id="Fill-25" fill="#FFFFFF" mask="url(#mask-2)"></path>
                <path d="M16.2666265,23.011871 L19.1746673,23.011871 L19.1746673,13.4867097 C19.1746673,12.9963871 19.2498306,12.488 19.3716469,12.1576774 C19.6334224,11.3525161 20.1388306,10.6221935 20.7919735,10.1009032 C21.4995449,9.53574194 22.3367082,9.2363871 23.2153408,9.2363871 C24.5786469,9.2363871 26.8646469,9.84283871 26.8646469,13.9099355 L26.8646469,23.011871 L29.7726878,23.011871 L29.7726878,13.5847742 C29.7726878,11.1770323 29.1065857,9.36283871 27.7925245,8.19380645 C26.4914224,7.03509677 24.9622388,6.86219355 24.1639531,6.86219355 C22.9613408,6.86219355 21.8183408,7.1796129 20.8515857,7.77832258 C20.0299735,8.29187097 19.3457286,9.00670968 18.9206673,9.79122581 L18.879198,9.79122581 L18.7159122,7.22090323 L18.671851,7.22090323 L16.1966469,8.18606452 C16.2458918,9.13316129 16.2666265,10.1783226 16.2666265,11.4996129 L16.2666265,23.011871 Z" id="Fill-26" fill="#FFFFFF" mask="url(#mask-2)"></path>
                <path d="M38.1629816,50.8371613 L38.1629816,42.5971613 C38.1629816,42.1739355 38.1966755,41.7507097 38.2614714,41.392 C38.6191449,39.5700645 39.9617163,38.3649032 41.8589408,38.3649032 C42.348798,38.3649032 42.7090633,38.395871 43.0693286,38.4629677 L43.0693286,34.715871 C42.7427571,34.6513548 42.5120837,34.6203871 42.1207163,34.6203871 C40.3867776,34.6203871 38.5232469,35.7584516 37.7379204,37.9726452 L37.6394306,37.9726452 L37.4761449,34.9945806 L34.0808388,36.3184516 C34.1223082,37.3894194 34.140451,38.5971613 34.140451,40.0913548 L34.140451,50.8371613 L38.1629816,50.8371613 Z" id="Fill-27" fill="#FFFFFF" mask="url(#mask-2)"></path>
                <path d="M96.1325204,65.7254194 L96.0003367,65.7254194 L95.7748469,62.848 L90.8296224,64.7757419 C90.8555408,65.7099355 90.8659082,66.8092903 90.8659082,68.2338065 L90.8659082,78.8505806 L96.7856633,78.8505806 L96.7856633,70.9357419 C96.7856633,70.5460645 96.8193571,70.1873548 96.8504592,69.9267097 C97.1796224,68.6234839 98.3563163,67.9060645 100.090255,67.9060645 C100.712296,67.9060645 101.168459,67.9731613 101.59352,68.0712258 L101.59352,62.5667097 C101.168459,62.4686452 100.940378,62.4686452 100.416827,62.4686452 C99.0094592,62.4686452 96.9826429,63.284129 96.1325204,65.7254194" id="Fill-28" fill="#FFFFFF" mask="url(#mask-2)"></path>
                <path d="M65.601202,41.7512258 C65.601202,41.4260645 65.665998,41.0673548 65.7307939,40.7421935 C66.1584469,38.9821935 67.6954061,37.7770323 69.3619571,37.7770323 C71.9460184,37.7770323 73.3196918,40.0583226 73.3196918,42.8583226 C73.3196918,45.9860645 71.8138347,48.1021935 69.2634673,48.1021935 C67.5295286,48.1021935 66.1247531,46.928 65.6996918,45.3021935 C65.6348959,44.9434839 65.601202,44.5847742 65.601202,44.1925161 L65.601202,41.7512258 Z M64.9817531,35.0105806 L61.5035082,36.368 C61.5449776,37.5163871 61.5786714,38.7860645 61.5786714,40.2544516 L61.5786714,57.284129 L65.601202,57.284129 L65.601202,49.0776774 L65.665998,49.0776774 C66.4850184,50.3499355 68.1515694,51.1963871 70.1472837,51.1963871 C73.7784469,51.1963871 77.4070184,48.4273548 77.4070184,42.6957419 C77.4070184,37.7460645 74.3667939,34.6183226 70.7019367,34.6183226 C68.2837531,34.6183226 66.4176306,35.6299355 65.2409367,37.4209032 L65.1761408,37.4209032 L64.9817531,35.0105806 Z" id="Fill-29" fill="#FFFFFF" mask="url(#mask-2)"></path>
            </g>
        </g>
    </g>
</svg>